<svg xmlns="http://www.w3.org/2000/svg" viewBox="0 0 929 531.75"><defs><style>.cls-1{stroke:#fff;stroke-miterlimit:10;stroke-width:21px;}.cls-2{fill:#fff;}</style></defs><title>Element 25</title><g id="Ebene_2" data-name="Ebene 2"><g id="Ebene_1-2" data-name="Ebene 1"><rect class="cls-1" x="10.5" y="10.5" width="908" height="510.75" rx="40" ry="40"/><path class="cls-2" d="M136.08,144.92h20.73v11.86H124.22V100.54h11.86Z"/><path class="cls-2" d="M185.92,152.66h1.78v11.79h-1.78A22.39,22.39,0,0,1,163.49,142v-6a22.47,22.47,0,0,1,44.94,0v7.74H175.48A10.72,10.72,0,0,0,185.92,152.66Zm.07-27.26a10.67,10.67,0,0,0-9.8,6.53h19.52A10.75,10.75,0,0,0,186,125.39Z"/><path class="cls-2" d="M238.18,139.45l18-29,10.22,6.32-28.19,45.58L210,116.73l10.22-6.32Z"/><path class="cls-2" d="M290.36,152.66h1.78v11.79h-1.78A22.39,22.39,0,0,1,267.93,142v-6a22.47,22.47,0,0,1,44.94,0v7.74H279.92A10.72,10.72,0,0,0,290.36,152.66Zm.07-27.26a10.67,10.67,0,0,0-9.8,6.53h19.52A10.75,10.75,0,0,0,290.43,125.39Z"/><path class="cls-2" d="M333.6,144.92h14.77v11.86H321.74V100.54H333.6Z"/><path class="cls-2" d="M407.16,125.46a10.61,10.61,0,0,0,0,21.23,10.81,10.81,0,0,0,7.67-3.19l8.17,8.59a22.79,22.79,0,0,1-15.83,6.46A22.47,22.47,0,1,1,423,120.07l-8.17,8.59A10.93,10.93,0,0,0,407.16,125.46Z"/><path class="cls-2" d="M473.61,136.11a22.47,22.47,0,1,1-22.51-22.51A22.45,22.45,0,0,1,473.61,136.11Zm-33.08,0a10.61,10.61,0,0,0,21.23,0,10.61,10.61,0,1,0-21.23,0Z"/><path class="cls-2" d="M496,108.42l14.77,33.72,14.77-33.72,20.16,46L535,159.12l-9.51-21.65-14.77,33.72L496,137.46l-9.51,21.65-10.65-4.69Z"/><path class="cls-2" d="M563.21,109.42v7a21.23,21.23,0,0,1,10.65-2.77,22.47,22.47,0,1,1,0,44.94,21.23,21.23,0,0,1-10.65-2.77v12.85H551.36V109.42Zm0,26.7a10.65,10.65,0,1,0,10.65-10.65A10.58,10.58,0,0,0,563.21,136.11Z"/><path class="cls-2" d="M617,144.92H631.8v11.86H605.17V100.54H617Z"/><path class="cls-2" d="M661,152.66h1.78v11.79H661A22.39,22.39,0,0,1,638.54,142v-6a22.47,22.47,0,0,1,44.94,0v7.74H650.54A10.72,10.72,0,0,0,661,152.66Zm.07-27.26a10.67,10.67,0,0,0-9.8,6.53h19.52A10.75,10.75,0,0,0,661,125.39Z"/><path class="cls-2" d="M694.7,100.54h11.86v14.84H719v11.79H706.56v9.51c0,5.68,4.62,10.08,10.65,10.08H719v11.79h-1.77c-12.07,0-22.51-9.44-22.51-21.87v-9.51h-5.89V115.38h5.89Z"/><path class="cls-2" d="M748.95,152.66h1.78v11.79h-1.78A22.39,22.39,0,0,1,726.51,142v-6a22.47,22.47,0,0,1,44.94,0v7.74H738.51A10.72,10.72,0,0,0,748.95,152.66Zm.07-27.26a10.67,10.67,0,0,0-9.8,6.53h19.52A10.75,10.75,0,0,0,749,125.39Z"/><path class="cls-2" d="M791.19,159.76a7.1,7.1,0,1,1,7.1-7.1A7.08,7.08,0,0,1,791.19,159.76Zm-5.89-59.21h11.79V142H785.3Z"/></g></g></svg>