<svg xmlns="http://www.w3.org/2000/svg" viewBox="0 0 519.74 118.76"><defs><style>.cls-1{fill:#fff;stroke:#fff;stroke-miterlimit:10;stroke-width:5.74px;}</style></defs><title>Element 26</title><g id="Ebene_2" data-name="Ebene 2"><g id="Ebene_1-2" data-name="Ebene 1"><rect class="cls-1" x="2.87" y="2.87" width="514" height="113.02" rx="40" ry="40"/><path d="M87.34,96.43,57.74,60.72V83H45.88V28.2L75.49,63.91V41.62H87.34Z"/><path d="M118.65,78.89h1.78V90.68h-1.78A22.39,22.39,0,0,1,96.22,68.24v-6a22.47,22.47,0,0,1,44.94,0V70H108.22A10.72,10.72,0,0,0,118.65,78.89Zm.07-27.26a10.67,10.67,0,0,0-9.8,6.53h19.52A10.75,10.75,0,0,0,118.73,51.63Z"/><path d="M184.26,37.43l8.31,8.31L176.31,62l16.26,16.26-8.31,8.31L168,70.3,151.74,86.56l-8.31-8.31L159.69,62,143.43,45.74l8.31-8.31L168,53.69Z"/><path d="M200,26.78h11.86V41.62h12.42V53.4H211.81v9.51c0,5.68,4.62,10.08,10.65,10.08h1.77V84.79h-1.77c-12.07,0-22.51-9.44-22.51-21.87V53.4h-5.89V41.62H200Z"/><path d="M274.57,71.15H295.3V83H262.71V26.78h11.86Z"/><path d="M324.41,78.89h1.78V90.68h-1.78A22.39,22.39,0,0,1,302,68.24v-6a22.47,22.47,0,0,1,44.94,0V70H314A10.72,10.72,0,0,0,324.41,78.89Zm.07-27.26a10.67,10.67,0,0,0-9.8,6.53h19.52A10.75,10.75,0,0,0,324.48,51.63Z"/><path d="M376.67,65.69l18-29L404.85,43,376.67,88.55,348.48,43l10.22-6.32Z"/><path d="M428.85,78.89h1.78V90.68h-1.78a22.39,22.39,0,0,1-22.44-22.44v-6a22.47,22.47,0,0,1,44.94,0V70H418.42A10.72,10.72,0,0,0,428.85,78.89Zm.07-27.26a10.67,10.67,0,0,0-9.8,6.53h19.52A10.75,10.75,0,0,0,428.92,51.63Z"/><path d="M472.09,71.15h14.77V83H460.23V26.78h11.86Z"/></g></g></svg>