<svg xmlns="http://www.w3.org/2000/svg" viewBox="0 0 159 97.4"><defs><style>.cls-1{fill:red;stroke:#fff;stroke-miterlimit:10;stroke-width:7px;}.cls-2{fill:#fff;}</style></defs><title>Element 11</title><g id="Ebene_2" data-name="Ebene 2"><g id="Ebene_1-2" data-name="Ebene 1"><rect class="cls-1" x="3.5" y="3.5" width="152" height="90.4" rx="12" ry="12"/><path class="cls-2" d="M38.87,35.48a12.66,12.66,0,1,1-8.44,22.08L26.19,61.8l-4.64-4.68,4.64-4.64V28.13h6.68V37A12,12,0,0,1,38.87,35.48Zm-6,12.68a6,6,0,1,0,6-6A6,6,0,0,0,32.87,48.16Z"/><path class="cls-2" d="M81.07,33.13v30H74.39V59.24a12,12,0,0,1-6,1.56,12.66,12.66,0,0,1,0-25.32,12,12,0,0,1,6,1.56V33.13Zm-18.64,15a6,6,0,0,0,12,0,6,6,0,1,0-12,0Z"/><path class="cls-2" d="M98.71,42.16a6,6,0,0,0,0,12,6.09,6.09,0,0,0,4.32-1.8l4.6,4.84a12.83,12.83,0,0,1-8.92,3.64,12.66,12.66,0,1,1,8.92-21.68L103,44A6.16,6.16,0,0,0,98.71,42.16Z"/><path class="cls-2" d="M111.59,67.68V28.13h6.68V48.56L129,35l5.12,4.2-5.76,7.32,8.08,10.12-5.08,4.24-7.24-9Z"/></g></g></svg>