<svg xmlns="http://www.w3.org/2000/svg" viewBox="0 0 2136 320.86"><defs><style>.cls-1{fill:#fff;}</style></defs><title>Element 23</title><g id="Ebene_2" data-name="Ebene 2"><g id="Ebene_1-2" data-name="Ebene 1"><path class="cls-1" d="M1161.62,184.93c-1.66-26-20.6-47.29-46.26-55.48V85h-150C945.17,66.69,910,52.29,855.83,85H204.62c-8.16-15.4-26.44-26.15-47.73-26.15S117.32,69.58,109.16,85H29.42v49C12,144.31,0,166,0,191.21s12,46.89,29.42,57.25v23.18H275.72A42.91,42.91,0,0,0,281,297.45c15.27,26.52,57.77,30.68,94.95,9.28,16.06-9.24,28.49-21.75,36.2-35.1h703.26V248.86C1143.88,239.08,1163.45,213.55,1161.62,184.93Z"/><ellipse cx="551.21" cy="174.52" rx="26.44" ry="28.7" transform="translate(314.81 702.16) rotate(-83.43)"/><ellipse cx="334.58" cy="260.73" rx="28.27" ry="26.04" transform="translate(-85.46 201.66) rotate(-29.92)"/><ellipse cx="908.64" cy="143.73" rx="42.49" ry="39.14"/><ellipse cx="154.76" cy="96.17" rx="20.66" ry="19.02" transform="translate(15.09 213.17) rotate(-71.81)"/><ellipse cx="508.21" cy="204.39" rx="12.15" ry="13.19" transform="translate(-39.51 196.84) rotate(-21.12)"/><ellipse cx="1113.08" cy="199.16" rx="20.58" ry="22.34" transform="translate(-17.66 192.05) rotate(-9.78)"/><ellipse cx="70.74" cy="190.86" rx="26.44" ry="28.7" transform="translate(-126.95 239.31) rotate(-83.43)"/><ellipse class="cls-1" cx="560.57" cy="165.85" rx="10.44" ry="11.33" transform="translate(331.71 703.78) rotate(-83.43)"/><ellipse class="cls-1" cx="332.24" cy="273.07" rx="11.16" ry="10.28" transform="translate(-91.93 202.14) rotate(-29.92)"/><ellipse class="cls-1" cx="900.81" cy="146.88" rx="16.77" ry="15.45"/><ellipse class="cls-1" cx="163.08" cy="94.85" rx="8.15" ry="7.51" transform="translate(22.06 220.17) rotate(-71.81)"/><ellipse class="cls-1" cx="504.63" cy="208.41" rx="4.8" ry="5.21" transform="translate(-41.2 195.82) rotate(-21.12)"/><ellipse class="cls-1" cx="1115.77" cy="198.08" rx="10.46" ry="11.35" transform="translate(-17.43 192.5) rotate(-9.78)"/><ellipse class="cls-1" cx="80.1" cy="182.19" rx="10.44" ry="11.33" transform="translate(-110.05 240.94) rotate(-83.43)"/><path class="cls-1" d="M373.49,85s-35.41,3.27-38.68-26.15c0,0,49-16.34,47.39,26.15S373.49,85,373.49,85Z"/><path class="cls-1" d="M394.19,85s-13.62-45.76,25.6-62.1c0,0,19.61,39.22-16.34,65.37S394.19,85,394.19,85Z"/><path class="cls-1" d="M906.8,78.44s-49-6.54-55.56-42.49c0,0,42.91-28.51,63.95,36.41S906.8,78.44,906.8,78.44Z"/><path class="cls-1" d="M926.51,66.15S929,42.71,950.32,47.67c0,0,2.15,23-18.77,22.65S926.51,66.15,926.51,66.15Z"/><path class="cls-1" d="M692.71,85s-53.93-26.15-27.78-65.37c0,0,36,6.54,36,39.22,0,0-16.34-22.88,22.88-58.83,0,0,32.68,32.68,0,62.1,0,0,29.42-22.88,42.49-6.54,0,0,0,42.49-45.76,36S692.71,85,692.71,85Z"/><path class="cls-1" d="M2135.88,185.39c-1.66-26-20.6-47.29-46.26-55.48V85.43h-150c-20.17-18.29-55.35-32.69-109.51,0H1178.88c-8.16-15.4-26.44-26.15-47.73-26.15S1091.58,70,1083.42,85.43h-79.74v49c-17.4,10.35-29.42,32.06-29.42,57.25s12,46.89,29.42,57.25v23.18H1250a42.91,42.91,0,0,0,5.23,25.82c15.27,26.52,57.77,30.68,94.95,9.28,16.06-9.24,28.49-21.75,36.2-35.1h703.26V249.31C2118.14,239.53,2137.71,214,2135.88,185.39Z"/><ellipse cx="1525.47" cy="174.97" rx="26.44" ry="28.7" transform="translate(1177.23 1670.43) rotate(-83.43)"/><ellipse cx="1308.84" cy="261.18" rx="28.27" ry="26.04" transform="translate(44.19 687.72) rotate(-29.92)"/><ellipse cx="1882.9" cy="144.18" rx="42.49" ry="39.14"/><ellipse cx="1129.02" cy="96.62" rx="20.66" ry="19.02" transform="translate(684.78 1139.05) rotate(-71.81)"/><ellipse cx="1482.47" cy="204.84" rx="12.15" ry="13.19" transform="translate(25.77 547.91) rotate(-21.12)"/><ellipse cx="2087.34" cy="199.61" rx="20.58" ry="22.34" transform="translate(-3.56 357.63) rotate(-9.78)"/><ellipse cx="1045" cy="191.31" rx="26.44" ry="28.7" transform="translate(735.46 1207.58) rotate(-83.43)"/><ellipse class="cls-1" cx="1534.83" cy="176.11" rx="10.44" ry="11.33" transform="translate(1184.39 1680.74) rotate(-83.43)"/><ellipse class="cls-1" cx="1306.5" cy="273.52" rx="11.16" ry="10.28" transform="translate(37.72 688.2) rotate(-29.92)"/><ellipse class="cls-1" cx="1875.08" cy="147.33" rx="16.77" ry="15.45"/><ellipse class="cls-1" cx="1127.54" cy="92.03" rx="8.15" ry="7.51" transform="translate(688.12 1134.49) rotate(-71.81)"/><ellipse class="cls-1" cx="1475.62" cy="205.59" rx="4.8" ry="5.21" transform="translate(25.04 545.49) rotate(-21.12)"/><ellipse class="cls-1" cx="2090.03" cy="208.33" rx="10.46" ry="11.35" transform="translate(-5 358.21) rotate(-9.78)"/><ellipse class="cls-1" cx="1051.09" cy="192.45" rx="10.44" ry="11.33" transform="translate(739.72 1214.65) rotate(-83.43)"/><path class="cls-1" d="M1347.75,85.43s-35.41,3.27-38.68-26.15c0,0,49-16.34,47.39,26.15S1347.75,85.43,1347.75,85.43Z"/><path class="cls-1" d="M1368.45,85.43s-13.62-45.76,25.6-62.1c0,0,19.61,39.22-16.34,65.37S1368.45,85.43,1368.45,85.43Z"/><path class="cls-1" d="M1881.06,78.9s-49-6.54-55.56-42.49c0,0,42.91-28.51,63.95,36.41S1881.06,78.9,1881.06,78.9Z"/><path class="cls-1" d="M1900.77,66.6s2.45-23.44,23.81-18.47c0,0,2.15,23-18.77,22.65S1900.77,66.6,1900.77,66.6Z"/><path class="cls-1" d="M1667,85.43S1613,59.28,1639.19,20.06c0,0,36,6.54,36,39.22,0,0-16.34-22.88,22.88-58.83,0,0,32.68,32.68,0,62.1,0,0,29.42-22.88,42.49-6.54,0,0,0,42.49-45.76,36S1667,85.43,1667,85.43Z"/><path class="cls-1" d="M1825.49,147.53s81.71-34.24,130.74,0L1907,92l-81.52,12.76Z"/><path class="cls-1" d="M1270.82,259.91S1324,239,1345.74,276.21l-9.43-43.47-51-10.72Z"/></g></g></svg>