<svg xmlns="http://www.w3.org/2000/svg" viewBox="0 0 276.5 158.59"><defs><style>.cls-1{stroke:#fff;stroke-miterlimit:10;stroke-width:7px;}.cls-2{fill:#fff;}</style></defs><title>Element 15</title><g id="Ebene_2" data-name="Ebene 2"><g id="Ebene_1-2" data-name="Ebene 1"><rect class="cls-1" x="3.5" y="3.5" width="269.5" height="151.59" rx="40" ry="40"/><path class="cls-2" d="M169,61.92c0,16.74-13.57,26.27-30.31,26.27s-30.31-9.53-30.31-26.27S122,23.53,138.69,23.53,169,45.18,169,61.92Z"/><path class="cls-2" d="M132.29,21.69a3,3,0,1,0-1.92.22,8.81,8.81,0,0,1,1,3.93s2.3,1,2.12-1.38A5.76,5.76,0,0,0,132.29,21.69Z"/><path class="cls-2" d="M147.7,22a3,3,0,1,0-1.81-.65,8.81,8.81,0,0,1-.84,4s1.62,1.92,2.51-.3A5.76,5.76,0,0,0,147.7,22Z"/><path d="M118.25,58s25.19-29.36,42.31-2.1C160.56,55.9,150,82.74,118.25,58Z"/><path class="cls-2" d="M142.93,48.33s-8.56,5.54,0,15.62C142.93,63.95,150.49,53.37,142.93,48.33Z"/><path class="cls-2" d="M66.9,129.54H78.58v6.68H60.22V104.54H66.9Z"/><path class="cls-2" d="M95,133.9h1v6.64H95A12.61,12.61,0,0,1,82.34,127.9v-3.36a12.66,12.66,0,0,1,25.32,0v4.36H89.1A6,6,0,0,0,95,133.9Zm0-15.36a6,6,0,0,0-5.52,3.68h11A6.06,6.06,0,0,0,95,118.54Z"/><path class="cls-2" d="M124.42,126.46l10.12-16.36,5.76,3.56-15.88,25.68-15.88-25.68,5.76-3.56Z"/><path class="cls-2" d="M153.82,133.9h1v6.64h-1a12.61,12.61,0,0,1-12.64-12.64v-3.36a12.66,12.66,0,0,1,25.32,0v4.36H147.94A6,6,0,0,0,153.82,133.9Zm0-15.36a6,6,0,0,0-5.52,3.68h11A6.06,6.06,0,0,0,153.86,118.54Z"/><path class="cls-2" d="M178.18,129.54h8.32v6.68h-15V104.54h6.68Z"/><path class="cls-2" d="M228.18,112.9l-5.44,9.44a12.64,12.64,0,0,1-9,21.56,12.82,12.82,0,0,1-8.92-3.64l4.64-4.84a5.67,5.67,0,0,0,4.28,1.8,6,6,0,0,0,5-9.32H212l4.76-8.36H207.1V112.9Z"/></g></g></svg>