<svg xmlns="http://www.w3.org/2000/svg" viewBox="0 0 276.5 158.59"><defs><style>.cls-1{stroke:#fff;stroke-miterlimit:10;stroke-width:7px;}.cls-2{fill:#fff;}</style></defs><title>Element 22</title><g id="Ebene_2" data-name="Ebene 2"><g id="Ebene_1-2" data-name="Ebene 1"><rect class="cls-1" x="3.5" y="3.5" width="269.5" height="151.59" rx="40" ry="40"/><path class="cls-2" d="M169,61.92c0,16.74-13.57,26.27-30.31,26.27s-30.31-9.53-30.31-26.27S122,23.53,138.69,23.53,169,45.18,169,61.92Z"/><path class="cls-2" d="M132.29,21.69a3,3,0,1,0-1.92.22,8.81,8.81,0,0,1,1,3.93s2.3,1,2.12-1.38A5.76,5.76,0,0,0,132.29,21.69Z"/><path class="cls-2" d="M147.7,22a3,3,0,1,0-1.81-.65,8.81,8.81,0,0,1-.84,4s1.62,1.92,2.51-.3A5.76,5.76,0,0,0,147.7,22Z"/><path d="M118.25,58s25.19-29.36,42.31-2.1C160.56,55.9,150,82.74,118.25,58Z"/><path class="cls-2" d="M142.93,48.33s-8.56,5.54,0,15.62C142.93,63.95,150.49,53.37,142.93,48.33Z"/><path class="cls-2" d="M52.46,129.54H64.14v6.68H45.78V104.54h6.68Z"/><path class="cls-2" d="M80.54,133.9h1v6.64h-1A12.61,12.61,0,0,1,67.9,127.9v-3.36a12.66,12.66,0,0,1,25.32,0v4.36H74.66A6,6,0,0,0,80.54,133.9Zm0-15.36a6,6,0,0,0-5.52,3.68h11A6.06,6.06,0,0,0,80.58,118.54Z"/><path class="cls-2" d="M110,126.46,120.1,110.1l5.76,3.56L110,139.34,94.1,113.66l5.76-3.56Z"/><path class="cls-2" d="M139.38,133.9h1v6.64h-1a12.61,12.61,0,0,1-12.64-12.64v-3.36a12.66,12.66,0,0,1,25.32,0v4.36H133.5A6,6,0,0,0,139.38,133.9Zm0-15.36a6,6,0,0,0-5.52,3.68h11A6.06,6.06,0,0,0,139.42,118.54Z"/><path class="cls-2" d="M163.74,129.54h8.32v6.68h-15V104.54h6.68Z"/><path class="cls-2" d="M202.1,136.22h-6.68V112.9h6.68Z"/><path class="cls-2" d="M234.73,124.58a12.66,12.66,0,1,1-12.68-12.68A12.65,12.65,0,0,1,234.73,124.58Zm-18.64,0a6,6,0,0,0,12,0,6,6,0,1,0-12,0Z"/></g></g></svg>