<svg xmlns="http://www.w3.org/2000/svg" viewBox="0 0 276.5 158.59"><defs><style>.cls-1{stroke:#fff;stroke-miterlimit:10;stroke-width:7px;}.cls-2{fill:#fff;}</style></defs><title>Element 24</title><g id="Ebene_2" data-name="Ebene 2"><g id="Ebene_1-2" data-name="Ebene 1"><rect class="cls-1" x="3.5" y="3.5" width="269.5" height="151.59" rx="40" ry="40"/><path class="cls-2" d="M57.2,131.16h9.57v7.68H49.51V102.41H57.2Z"/><path class="cls-2" d="M99,125.46a14.56,14.56,0,1,1-14.58-14.58A14.55,14.55,0,0,1,99,125.46Zm-21.44,0a6.88,6.88,0,0,0,13.76,0,6.88,6.88,0,1,0-13.76,0Z"/><path class="cls-2" d="M118.38,118.56a6.88,6.88,0,0,0,0,13.75,7,7,0,0,0,5-2.07l5.29,5.57A14.77,14.77,0,0,1,118.38,140a14.56,14.56,0,1,1,10.26-24.94l-5.29,5.57A7.09,7.09,0,0,0,118.38,118.56Z"/><path class="cls-2" d="M133.19,147.91v-45.5h7.68v23.51l12.38-15.55,5.89,4.83-6.62,8.42,9.29,11.64L156,140.13l-8.33-10.35Z"/><path class="cls-2" d="M178.91,136.18h1.15v7.64h-1.15a14.51,14.51,0,0,1-14.54-14.54v-3.86a14.56,14.56,0,0,1,29.12,0v5H172.15A6.94,6.94,0,0,0,178.91,136.18Zm0-17.67a6.91,6.91,0,0,0-6.35,4.23h12.65A7,7,0,0,0,179,118.51Z"/><path class="cls-2" d="M227.49,102.41v40.25h-7.68V138.2a13.76,13.76,0,0,1-6.9,1.79,14.56,14.56,0,0,1,0-29.12,13.76,13.76,0,0,1,6.9,1.79V102.41Zm-21.44,23a6.88,6.88,0,0,0,13.76,0,6.88,6.88,0,1,0-13.76,0Z"/><rect class="cls-2" x="114" y="38.41" width="48" height="48" rx="11" ry="11" transform="translate(276 124.82) rotate(180)"/><path class="cls-2" d="M133.15,50.9h10.36a11.29,11.29,0,0,0,11.26-11.26V29.29A11.29,11.29,0,0,0,143.51,18H133.15a11.29,11.29,0,0,0-11.26,11.26V39.65A11.29,11.29,0,0,0,133.15,50.9Zm-6.76-22.07A5.87,5.87,0,0,1,132.25,23H144a5.87,5.87,0,0,1,5.85,5.85V40.55A5.87,5.87,0,0,1,144,46.4H132.25a5.87,5.87,0,0,1-5.85-5.85Z"/><circle cx="138.49" cy="62.58" r="7.07"/></g></g></svg>