<svg xmlns="http://www.w3.org/2000/svg" viewBox="0 0 519.74 118.76"><defs><style>.cls-1{fill:#fff;stroke:#fff;stroke-miterlimit:10;stroke-width:5.74px;}</style></defs><title>Element 30</title><g id="Ebene_2" data-name="Ebene 2"><g id="Ebene_1-2" data-name="Ebene 1"><rect class="cls-1" x="2.87" y="2.87" width="514" height="113.02" rx="40" ry="40"/><path d="M95.09,52.53a11.13,11.13,0,0,0,0,22.26,11.33,11.33,0,0,0,8-3.35l8.56,9a23.9,23.9,0,0,1-16.6,6.77,23.56,23.56,0,1,1,16.6-40.35l-8.56,9A11.46,11.46,0,0,0,95.09,52.53Z"/><path d="M164.77,63.69a23.56,23.56,0,1,1-23.6-23.6A23.54,23.54,0,0,1,164.77,63.69Zm-34.69,0a11.13,11.13,0,0,0,22.26,0,11.13,11.13,0,1,0-22.26,0Z"/><path d="M217.55,99.43,186.5,62V85.36H174.07V27.88l31,37.45V42h12.43Z"/><path d="M230.72,26.39h12.43V42h13V54.31h-13v10c0,6,4.84,10.57,11.17,10.57h1.86V87.22h-1.86c-12.65,0-23.6-9.9-23.6-22.93v-10h-6.18V42h6.18Z"/><path d="M271.74,38.23a7.44,7.44,0,1,1,7.44-7.44A7.42,7.42,0,0,1,271.74,38.23Zm6.18,47.12H265.49V42h12.43Z"/><path d="M332.11,99.43,301.07,62V85.36H288.64V27.88l31,37.45V42h12.43Z"/><path d="M354.22,63.62a11.17,11.17,0,0,0,22.33,0V42H389V63.62a23.6,23.6,0,1,1-47.2,0V42h12.43Z"/><path d="M420.77,81h1.86V93.4h-1.86a23.48,23.48,0,0,1-23.53-23.53V63.62a23.56,23.56,0,0,1,47.12,0v8.12H409.83A11.24,11.24,0,0,0,420.77,81Zm.07-28.59a11.18,11.18,0,0,0-10.27,6.85H431A11.28,11.28,0,0,0,420.84,52.45Z"/></g></g></svg>