<svg xmlns="http://www.w3.org/2000/svg" viewBox="0 0 519.74 118.76"><defs><style>.cls-1{stroke:#fff;stroke-miterlimit:10;stroke-width:5.74px;}.cls-2{fill:#fff;}</style></defs><title>Element 31</title><g id="Ebene_2" data-name="Ebene 2"><g id="Ebene_1-2" data-name="Ebene 1"><rect class="cls-1" x="2.87" y="2.87" width="514" height="113.02" rx="40" ry="40"/><path class="cls-2" d="M49.75,71.55h18.1V81.91H39.4V32.8H49.75Z"/><path class="cls-2" d="M93.27,78.31h1.55V88.6H93.27A19.55,19.55,0,0,1,73.68,69V63.8a19.62,19.62,0,0,1,39.24,0v6.76H84.16A9.36,9.36,0,0,0,93.27,78.31Zm.06-23.81a9.31,9.31,0,0,0-8.56,5.7h17A9.39,9.39,0,0,0,93.34,54.5Z"/><path class="cls-2" d="M138.91,66.78l15.69-25.36,8.93,5.52-24.61,39.8-24.61-39.8,8.93-5.52Z"/><path class="cls-2" d="M184.48,78.31H186V88.6h-1.55A19.55,19.55,0,0,1,164.88,69V63.8a19.62,19.62,0,0,1,39.24,0v6.76H175.36A9.36,9.36,0,0,0,184.48,78.31Zm.06-23.81a9.31,9.31,0,0,0-8.56,5.7h17A9.39,9.39,0,0,0,184.54,54.5Z"/><path class="cls-2" d="M222.23,71.55h12.9V81.91H211.88V32.8h10.35Z"/><path class="cls-2" d="M293.53,49.3c-5.27,0-9.3,3.84-9.3,8.8V69.51c0,10.85-9.11,19.09-19.65,19.09H263V78.31h1.55c5.27,0,9.3-3.84,9.3-8.8V58.1C273.88,47.25,283,39,293.53,39h1.55V49.3Z"/><path class="cls-2" d="M316.23,78.31h1.55V88.6h-1.55A19.55,19.55,0,0,1,296.64,69V63.8a19.62,19.62,0,0,1,39.24,0v6.76H307.11A9.36,9.36,0,0,0,316.23,78.31Zm.06-23.81a9.31,9.31,0,0,0-8.56,5.7h17A9.39,9.39,0,0,0,316.29,54.5Z"/><path class="cls-2" d="M354,71.55h12.9V81.91H343.63V32.8H354Z"/><path class="cls-2" d="M392.36,78.31h1.55V88.6h-1.55A19.55,19.55,0,0,1,372.77,69V63.8a19.62,19.62,0,0,1,39.24,0v6.76H383.25A9.36,9.36,0,0,0,392.36,78.31Zm.06-23.81a9.31,9.31,0,0,0-8.56,5.7h17A9.39,9.39,0,0,0,392.43,54.5Z"/><path class="cls-2" d="M438.18,54.57a9.27,9.27,0,0,0,0,18.54,9.44,9.44,0,0,0,6.7-2.79l7.13,7.5a19.9,19.9,0,0,1-13.83,5.64A19.62,19.62,0,1,1,452,49.85l-7.13,7.5A9.55,9.55,0,0,0,438.18,54.57Z"/><path class="cls-2" d="M460.19,32.8h10.35v13h10.85V56.05H470.55v8.31c0,5,4,8.8,9.3,8.8h1.55V83.46h-1.55c-10.54,0-19.65-8.25-19.65-19.09V56.05H455V45.76h5.15Z"/></g></g></svg>