<svg xmlns="http://www.w3.org/2000/svg" viewBox="0 0 929 531.75"><defs><style>.cls-1{stroke:#fff;stroke-miterlimit:10;stroke-width:21px;}.cls-2{fill:#fff;}</style></defs><title>Element 29</title><g id="Ebene_2" data-name="Ebene 2"><g id="Ebene_1-2" data-name="Ebene 1"><rect class="cls-1" x="10.5" y="10.5" width="908" height="510.75" rx="40" ry="40"/><path class="cls-2" d="M365.09,108.43a23.74,23.74,0,1,1,0,47.47A22.43,22.43,0,0,1,353.84,153v13.57H341.31V124l-8.7-8.7,8.7-8.7,8,8A23.58,23.58,0,0,1,365.09,108.43Zm-11.25,23.77A11.25,11.25,0,1,0,365.09,121,11.17,11.17,0,0,0,353.84,132.21Z"/><path class="cls-2" d="M444.21,104v56.25H431.69V153a22.43,22.43,0,0,1-11.25,2.92,23.74,23.74,0,0,1,0-47.47,22.43,22.43,0,0,1,11.25,2.93V104Zm-34.95,28.2a11.21,11.21,0,0,0,22.42,0,11.21,11.21,0,1,0-22.42,0Z"/><path class="cls-2" d="M466.49,132.13a11.25,11.25,0,1,0,22.5,0V110.31h12.52v21.82a23.77,23.77,0,1,1-47.55,0V110.31h12.52Z"/><path class="cls-2" d="M538.34,105.89c-6.37,0-11.25,4.65-11.25,10.65v28.8c0,13.13-11,23.1-23.77,23.1h-1.87V156h1.88c6.37,0,11.25-4.65,11.25-10.65v-28.8c0-13.12,11-23.1,23.77-23.1h1.88v12.45Z"/><path class="cls-2" d="M562,149.68h1.88v12.45H562a23.65,23.65,0,0,1-23.7-23.7v-6.3a23.74,23.74,0,0,1,47.47,0v8.17H551A11.32,11.32,0,0,0,562,149.68Zm.08-28.8a11.26,11.26,0,0,0-10.35,6.9h20.62A11.36,11.36,0,0,0,562.11,120.88Z"/></g></g></svg>