<svg xmlns="http://www.w3.org/2000/svg" viewBox="0 0 3070.12 1706.1"><defs><style>.cls-1,.cls-3{stroke:#fff;stroke-miterlimit:10;}.cls-1{stroke-width:27.12px;}.cls-2{fill:#fff;}.cls-3{fill:none;stroke-width:3px;}</style></defs><title>Element 45</title><g id="Ebene_2" data-name="Ebene 2"><g id="Ebene_1-2" data-name="Ebene 1"><rect class="cls-1" x="13.56" y="13.56" width="3043" height="1678.98" rx="40" ry="40"/><path class="cls-2" d="M1168.06,1251H1027.29s-5.26-101.3,67.1-169.71c45.37-42.9,73.67-38.15,73.67-38.15v72.36s-30.26,31.57,0,67.1Z"/><path class="cls-3" d="M1185.06,1251h140.77s5.26-101.3-67.1-169.71c-45.37-42.9-73.67-38.15-73.67-38.15v72.36s30.26,31.57,0,67.1Z"/><path class="cls-2" d="M175.32,137.81a25.94,25.94,0,0,1,17.3,6.64l8.69-8.69,9.51,9.51-9.51,9.51v22.63a26,26,0,0,1-26,26h-2V189.47c-11.56,0-23.86-11.4-23.86-25.75A25.86,25.86,0,0,1,175.32,137.81Zm-12.22,26a12.26,12.26,0,0,0,24.52,0,12.26,12.26,0,1,0-24.52,0Z"/><path class="cls-2" d="M229.77,133v8a24.53,24.53,0,0,1,12.3-3.2h1.39v13.69h-1.39a12.16,12.16,0,0,0-12.3,12.22v23.94H216.07V133Z"/><path class="cls-2" d="M301.76,133v61.5H288.07v-8a24.52,24.52,0,0,1-12.3,3.2,26,26,0,0,1,0-51.91,24.53,24.53,0,0,1,12.3,3.2v-8Zm-38.21,30.83a12.26,12.26,0,0,0,24.52,0,12.26,12.26,0,1,0-24.52,0Z"/><path class="cls-2" d="M327.26,133v8a24.53,24.53,0,0,1,12.3-3.2,26,26,0,1,1,0,51.91,24.52,24.52,0,0,1-12.3-3.2v14.84H313.57V133Zm0,30.83a12.3,12.3,0,1,0,12.3-12.3A12.21,12.21,0,0,0,327.26,163.81Z"/><path class="cls-2" d="M389.42,133v8a24.53,24.53,0,0,1,12.3-3.2,26,26,0,1,1,0,51.91,24.52,24.52,0,0,1-12.3-3.2v14.84H375.73V133Zm0,30.83a12.3,12.3,0,1,0,12.3-12.3A12.21,12.21,0,0,0,389.42,163.81Z"/><path class="cls-2" d="M451.57,174h17.06v13.69H437.88V122.72h13.69Z"/><path class="cls-2" d="M484.87,135.76a8.2,8.2,0,1,1,8.2-8.2A8.17,8.17,0,0,1,484.87,135.76Zm6.81,51.91H478V139.86h13.69Z"/><path class="cls-2" d="M551.37,203.17l-34.19-41.25v25.75H503.48v-63.3l34.19,41.25V139.86h13.69Z"/><path class="cls-2" d="M561.62,163.72a25.86,25.86,0,0,1,25.91-25.91,24.53,24.53,0,0,1,12.3,3.2v-8h13.69v44.44a26,26,0,0,1-26,26h-2V189.47C573.92,189.47,561.62,178.07,561.62,163.72Zm38.21,0a12.3,12.3,0,1,0-12.3,12.3A12.55,12.55,0,0,0,599.83,163.72Z"/><path class="cls-2" d="M693.72,153.47V139.86h13.69v47.81H693.72v-20.5h-20.5v20.5H659.52V122.72h13.69v30.75Z"/><path class="cls-2" d="M769.57,163.81a26,26,0,1,1-26-26A25.93,25.93,0,0,1,769.57,163.81Zm-38.21,0a12.26,12.26,0,0,0,24.52,0,12.26,12.26,0,1,0-24.52,0Z"/><path class="cls-2" d="M830.16,163.81a26,26,0,1,1-26-26A25.93,25.93,0,0,1,830.16,163.81Zm-38.21,0a12.26,12.26,0,0,0,24.52,0,12.26,12.26,0,1,0-24.52,0Z"/><path class="cls-2" d="M840.41,203.82v-81.1h13.69v41.9l22.06-27.72,10.5,8.61-11.81,15,16.56,20.75L881,190l-14.84-18.45Z"/><path class="cls-2" d="M910.11,191.11a8.2,8.2,0,1,1,8.2-8.2A8.17,8.17,0,0,1,910.11,191.11Zm-6.81-68.39h13.61v47.89H903.31Z"/><path class="cls-2" d="M153.67,319.52h13.69v17.14h14.35v13.61H167.37v11c0,6.56,5.33,11.64,12.3,11.64h2v13.61h-2c-13.94,0-26-10.91-26-25.26v-11h-6.81V336.66h6.81Z"/><path class="cls-2" d="M228.46,350.27V336.66h13.69v47.81H228.46V364H208v20.5H194.26V319.52H208v30.75Z"/><path class="cls-2" d="M278.31,379.71h2.05v13.61h-2.05a25.86,25.86,0,0,1-25.91-25.91v-6.89a26,26,0,0,1,51.91,0v8.94h-38A12.38,12.38,0,0,0,278.31,379.71Zm.08-31.49a12.32,12.32,0,0,0-11.32,7.54h22.55A12.42,12.42,0,0,0,278.39,348.22Z"/><path class="cls-2" d="M347.19,360.52a25.86,25.86,0,0,1,25.91-25.91,24.53,24.53,0,0,1,12.3,3.2v-8H399.1v44.44a26,26,0,0,1-26,26h-2V386.27C359.49,386.27,347.19,374.87,347.19,360.52Zm38.21,0a12.3,12.3,0,1,0-12.3,12.3A12.55,12.55,0,0,0,385.4,360.52Z"/><path class="cls-2" d="M435.26,379.71h2.05v13.61h-2.05a25.86,25.86,0,0,1-25.91-25.91v-6.89a26,26,0,0,1,51.91,0v8.94h-38A12.38,12.38,0,0,0,435.26,379.71Zm.08-31.49A12.32,12.32,0,0,0,424,355.77h22.55A12.42,12.42,0,0,0,435.34,348.22Z"/><path class="cls-2" d="M521.85,329.77v61.5H508.15v-8a24.52,24.52,0,0,1-12.3,3.2,26,26,0,0,1,0-51.91,24.53,24.53,0,0,1,12.3,3.2v-8Zm-38.21,30.83a12.26,12.26,0,0,0,24.52,0,12.26,12.26,0,1,0-24.52,0Z"/><path class="cls-2" d="M547.35,329.77v8a24.53,24.53,0,0,1,12.3-3.2H561v13.69h-1.39a12.16,12.16,0,0,0-12.3,12.22v23.94H533.66V329.77Z"/><path class="cls-2" d="M602.7,331.82c-7,0-12.3,5.08-12.3,11.64V375c0,14.35-12.05,25.26-26,25.26h-2V386.6h2c7,0,12.3-5.08,12.3-11.64V343.47c0-14.35,12.05-25.26,26-25.26h2v13.61Z"/><path class="cls-2" d="M657.89,329.77v8a24.53,24.53,0,0,1,12.3-3.2,26,26,0,1,1,0,51.91,24.52,24.52,0,0,1-12.3-3.2v14.84H644.19V329.77Zm0,30.83a12.3,12.3,0,1,0,12.3-12.3A12.21,12.21,0,0,0,657.89,360.61Z"/><path class="cls-2" d="M720,370.77H737.1v13.69H706.35V319.52H720Z"/><path class="cls-2" d="M796.79,329.77v61.5H783.1v-8a24.52,24.52,0,0,1-12.3,3.2,26,26,0,0,1,0-51.91,24.53,24.53,0,0,1,12.3,3.2v-8Zm-38.21,30.83a12.26,12.26,0,0,0,24.52,0,12.26,12.26,0,1,0-24.52,0Z"/><path class="cls-2" d="M833,348.31a12.26,12.26,0,0,0,0,24.52,12.48,12.48,0,0,0,8.86-3.69l9.43,9.92A26.32,26.32,0,0,1,833,386.52a26,26,0,0,1,0-51.91c7.13,0,13,2.62,18.29,7.46L841.81,352A12.63,12.63,0,0,0,833,348.31Z"/><path class="cls-2" d="M883.71,379.71h2.05v13.61h-2.05a25.86,25.86,0,0,1-25.91-25.91v-6.89a26,26,0,0,1,51.91,0v8.94h-38A12.38,12.38,0,0,0,883.71,379.71Zm.08-31.49a12.32,12.32,0,0,0-11.32,7.54H895A12.42,12.42,0,0,0,883.79,348.22Z"/><path class="cls-2" d="M970.3,319.52v71.75H956.61v-8a24.52,24.52,0,0,1-12.3,3.2,26,26,0,0,1,0-51.91,24.53,24.53,0,0,1,12.3,3.2V319.52Zm-38.21,41.08a12.26,12.26,0,0,0,24.52,0,12.26,12.26,0,1,0-24.52,0Z"/><path class="cls-2" d="M1023.19,332.56a8.2,8.2,0,1,1,8.2-8.2A8.17,8.17,0,0,1,1023.19,332.56Zm6.81,51.91H1016.3V336.66H1030Z"/><path class="cls-2" d="M1089.69,400l-34.19-41.25v25.75H1041.8v-63.3L1076,362.41V336.66h13.69Z"/><path class="cls-2" d="M1138.4,319.52h13.69v17.14h14.35v13.61h-14.35v11c0,6.56,5.33,11.64,12.3,11.64h2v13.61h-2c-13.94,0-26-10.91-26-25.26v-11h-6.81V336.66h6.81Z"/><path class="cls-2" d="M1213.18,350.27V336.66h13.69v47.81h-13.69V364h-20.5v20.5H1179V319.52h13.69v30.75Z"/><path class="cls-2" d="M1263,379.71h2.05v13.61H1263a25.86,25.86,0,0,1-25.91-25.91v-6.89a26,26,0,0,1,51.91,0v8.94h-38A12.38,12.38,0,0,0,1263,379.71Zm.08-31.49a12.32,12.32,0,0,0-11.32,7.54h22.55A12.42,12.42,0,0,0,1263.12,348.22Z"/><path class="cls-2" d="M1347.17,370.77h17.06v13.69h-30.75V319.52h13.69Z"/><path class="cls-2" d="M1397.93,379.71H1400v13.61h-2.05A25.86,25.86,0,0,1,1372,367.41v-6.89a26,26,0,0,1,51.91,0v8.94h-38A12.38,12.38,0,0,0,1397.93,379.71Zm.08-31.49a12.32,12.32,0,0,0-11.32,7.54h22.55A12.42,12.42,0,0,0,1398,348.22Z"/><path class="cls-2" d="M1458.28,364.46,1479,330.92l11.81,7.3-32.55,52.64-32.55-52.64,11.81-7.3Z"/><path class="cls-2" d="M1518.55,379.71h2.05v13.61h-2.05a25.86,25.86,0,0,1-25.91-25.91v-6.89a26,26,0,0,1,51.91,0v8.94h-38A12.38,12.38,0,0,0,1518.55,379.71Zm.08-31.49a12.32,12.32,0,0,0-11.32,7.54h22.55A12.42,12.42,0,0,0,1518.63,348.22Z"/><path class="cls-2" d="M1568.49,370.77h17.06v13.69h-30.75V319.52h13.69Z"/><path class="cls-2" d="M1653.44,348.31a12.26,12.26,0,0,0,0,24.52,12.48,12.48,0,0,0,8.86-3.69l9.43,9.92a26.32,26.32,0,0,1-18.29,7.46,26,26,0,0,1,0-51.91c7.13,0,13,2.62,18.29,7.46l-9.43,9.92A12.63,12.63,0,0,0,1653.44,348.31Z"/><path class="cls-2" d="M1730.19,329.77v61.5h-13.69v-8a24.52,24.52,0,0,1-12.3,3.2,26,26,0,0,1,0-51.91,24.53,24.53,0,0,1,12.3,3.2v-8ZM1692,360.61a12.26,12.26,0,0,0,24.52,0,12.26,12.26,0,1,0-24.52,0Z"/><path class="cls-2" d="M1789.88,400l-34.19-41.25v25.75H1742v-63.3l34.19,41.25V336.66h13.69Z"/><path class="cls-2" d="M1861.88,334.61a26,26,0,1,1,0,51.91,24.52,24.52,0,0,1-12.3-3.2v8h-13.69V319.52h13.69v18.29A24.53,24.53,0,0,1,1861.88,334.61Zm-12.3,26a12.3,12.3,0,1,0,12.3-12.3A12.21,12.21,0,0,0,1849.58,360.61Z"/><path class="cls-2" d="M1922.39,379.71h2.05v13.61h-2.05a25.86,25.86,0,0,1-25.91-25.91v-6.89a26,26,0,0,1,51.91,0v8.94h-38A12.38,12.38,0,0,0,1922.39,379.71Zm.08-31.49a12.32,12.32,0,0,0-11.32,7.54h22.55A12.42,12.42,0,0,0,1922.47,348.22Z"/><path class="cls-2" d="M2005.37,360.52a12.3,12.3,0,0,0,24.6,0V336.66h13.69v23.86a26,26,0,1,1-52,0V336.66h13.69Z"/><path class="cls-2" d="M2083.93,331.82c-7,0-12.3,5.08-12.3,11.64V375c0,14.35-12.05,25.26-26,25.26h-2V386.6h2c7,0,12.3-5.08,12.3-11.64V343.47c0-14.35,12.05-25.26,26-25.26h2v13.61Z"/><path class="cls-2" d="M2109.84,379.71h2.05v13.61h-2.05a25.86,25.86,0,0,1-25.91-25.91v-6.89a26,26,0,0,1,51.91,0v8.94h-38A12.38,12.38,0,0,0,2109.84,379.71Zm.08-31.49a12.32,12.32,0,0,0-11.32,7.54h22.55A12.42,12.42,0,0,0,2109.93,348.22Z"/><path class="cls-2" d="M2196.44,319.52v71.75h-13.69v-8a24.52,24.52,0,0,1-12.3,3.2,26,26,0,0,1,0-51.91,24.53,24.53,0,0,1,12.3,3.2V319.52Zm-38.21,41.08a12.26,12.26,0,0,0,24.52,0,12.26,12.26,0,1,0-24.52,0Z"/><path class="cls-2" d="M2245.14,319.52h13.69v17.14h14.35v13.61h-14.35v11c0,6.56,5.33,11.64,12.3,11.64h2v13.61h-2c-13.94,0-26-10.91-26-25.26v-11h-6.81V336.66h6.81Z"/><path class="cls-2" d="M2333.79,360.61a26,26,0,1,1-26-26A25.93,25.93,0,0,1,2333.79,360.61Zm-38.21,0a12.26,12.26,0,0,0,24.52,0,12.26,12.26,0,1,0-24.52,0Z"/><path class="cls-2" d="M2391.92,370.77H2409v13.69h-30.75V319.52h13.69Z"/><path class="cls-2" d="M2468.67,329.77v61.5H2455v-8a24.52,24.52,0,0,1-12.3,3.2,26,26,0,0,1,0-51.91,24.53,24.53,0,0,1,12.3,3.2v-8Zm-38.21,30.83a12.26,12.26,0,0,0,24.52,0,12.26,12.26,0,1,0-24.52,0Z"/><path class="cls-2" d="M2493,360.52a12.3,12.3,0,0,0,24.6,0V336.66h13.69v23.86a26,26,0,0,1-52,0V336.66H2493Z"/><path class="cls-2" d="M2589.87,400l-34.19-41.25v25.75H2542v-63.3l34.19,41.25V336.66h13.69Z"/><path class="cls-2" d="M2626,348.31a12.26,12.26,0,0,0,0,24.52,12.48,12.48,0,0,0,8.86-3.69l9.43,9.92a26.32,26.32,0,0,1-18.29,7.46,26,26,0,0,1,0-51.91c7.13,0,13,2.62,18.29,7.46l-9.43,9.92A12.63,12.63,0,0,0,2626,348.31Z"/><path class="cls-2" d="M2686.63,350.27V336.66h13.69v47.81h-13.69V364h-20.5v20.5h-13.69V319.52h13.69v30.75Z"/><path class="cls-2" d="M192.79,430.22l9.59,9.59-21.89,21.89v34.85H166.87V461.71L145,439.82l9.59-9.59,19.11,19.19Z"/><path class="cls-2" d="M254.45,459a26,26,0,1,1-26-26A25.93,25.93,0,0,1,254.45,459Zm-38.21,0a12.26,12.26,0,0,0,24.52,0,12.26,12.26,0,1,0-24.52,0Z"/><path class="cls-2" d="M277.25,458.92a12.3,12.3,0,0,0,24.6,0V435.06h13.69v23.86a26,26,0,0,1-52,0V435.06h13.69Z"/><path class="cls-2" d="M339.9,428.17v8a24.53,24.53,0,0,1,12.3-3.2h1.39v13.69H352.2a12.16,12.16,0,0,0-12.3,12.22v23.94H326.2V428.17Z"/><path class="cls-2" d="M395.24,430.22c-7,0-12.3,5.08-12.3,11.64v31.49c0,14.35-12.05,25.26-26,25.26h-2V485h2c7,0,12.3-5.08,12.3-11.64V441.87c0-14.35,12.05-25.26,26-25.26h2v13.61Z"/><path class="cls-2" d="M421.16,478.11h2.05v13.61h-2.05a25.86,25.86,0,0,1-25.91-25.91v-6.89a26,26,0,0,1,51.91,0v8.94h-38A12.38,12.38,0,0,0,421.16,478.11Zm.08-31.49a12.32,12.32,0,0,0-11.32,7.54h22.55A12.42,12.42,0,0,0,421.24,446.62Z"/><path class="cls-2" d="M471.1,469.17h17.06v13.69H457.4V417.92H471.1Z"/><path class="cls-2" d="M501.84,441.87c0-14.35,12.05-25.26,26-25.26h2v13.61h-2c-7,0-12.3,5.08-12.3,11.64v6.81h14.35v13.69H515.54v11c0,14.35-12.05,25.26-26,25.26h-2V485h2c7,0,12.3-5.08,12.3-11.64v-11H495V448.67h6.81Z"/><path class="cls-2" d="M575.4,417.92h13.69v17.14h14.35v13.61H589.09v11c0,6.56,5.33,11.64,12.3,11.64h2v13.61h-2c-13.94,0-26-10.91-26-25.26v-11h-6.81V435.06h6.81Z"/><path class="cls-2" d="M664,459a26,26,0,1,1-26-26A25.93,25.93,0,0,1,664,459Zm-38.21,0a12.26,12.26,0,0,0,24.52,0,12.26,12.26,0,1,0-24.52,0Z"/><path class="cls-2" d="M742.68,448.67V435.06h13.69v47.81H742.68v-20.5h-20.5v20.5H708.48V417.92h13.69v30.75Z"/><path class="cls-2" d="M775.07,431a8.2,8.2,0,1,1,8.2-8.2A8.17,8.17,0,0,1,775.07,431Zm6.81,51.91H768.18V435.06h13.69Z"/><path class="cls-2" d="M792.12,458.92A25.86,25.86,0,0,1,818,433a24.53,24.53,0,0,1,12.3,3.2v-8H844v44.44a26,26,0,0,1-26,26h-2V484.67C804.42,484.67,792.12,473.27,792.12,458.92Zm38.21,0a12.3,12.3,0,1,0-12.3,12.3A12.55,12.55,0,0,0,830.33,458.92Z"/><path class="cls-2" d="M890,448.67V435.06h13.69v47.81H890v-20.5h-20.5v20.5H855.83V417.92h13.69v30.75Z"/><path class="cls-2" d="M939.88,478.11h2.05v13.61h-2.05A25.86,25.86,0,0,1,914,465.81v-6.89a26,26,0,0,1,51.91,0v8.94h-38A12.38,12.38,0,0,0,939.88,478.11Zm.08-31.49a12.32,12.32,0,0,0-11.32,7.54H951.2A12.42,12.42,0,0,0,940,446.62Z"/><path class="cls-2" d="M989.82,428.17v8a24.53,24.53,0,0,1,12.3-3.2h1.39v13.69h-1.39a12.16,12.16,0,0,0-12.3,12.22v23.94H976.13V428.17Z"/><path class="cls-2" d="M1059.36,428.17v8a24.53,24.53,0,0,1,12.3-3.2,26,26,0,1,1,0,51.91,24.52,24.52,0,0,1-12.3-3.2v14.84h-13.69V428.17Zm0,30.83a12.3,12.3,0,1,0,12.3-12.3A12.21,12.21,0,0,0,1059.36,459Z"/><path class="cls-2" d="M1121.51,469.17h17.06v13.69h-30.75V417.92h13.69Z"/><path class="cls-2" d="M1198.26,428.17v61.5h-13.69v-8a24.52,24.52,0,0,1-12.3,3.2,26,26,0,0,1,0-51.91,24.53,24.53,0,0,1,12.3,3.2v-8ZM1160.05,459a12.26,12.26,0,0,0,24.52,0,12.26,12.26,0,1,0-24.52,0Z"/><path class="cls-2" d="M1212.78,417.92h13.69v17.14h14.35v13.61h-14.35v11c0,6.56,5.33,11.64,12.3,11.64h2v13.61h-2c-13.94,0-26-10.91-26-25.26v-11H1206V435.06h6.81Z"/><path class="cls-2" d="M1257.06,441.87c0-14.35,12.05-25.26,26-25.26h2v13.61h-2c-7,0-12.3,5.08-12.3,11.64v6.81h14.35v13.69h-14.35v11c0,14.35-12.05,25.26-26,25.26h-2V485h2c7,0,12.3-5.08,12.3-11.64v-11h-6.81V448.67h6.81Z"/><path class="cls-2" d="M1344.06,459a26,26,0,1,1-26-26A25.93,25.93,0,0,1,1344.06,459Zm-38.21,0a12.26,12.26,0,0,0,24.52,0,12.26,12.26,0,1,0-24.52,0Z"/><path class="cls-2" d="M1368,428.17v8a24.53,24.53,0,0,1,12.3-3.2h1.39v13.69h-1.39a12.16,12.16,0,0,0-12.3,12.22v23.94h-13.69V428.17Z"/><path class="cls-2" d="M1404.41,427l17.06,39,17.06-39,23.29,53.14-12.3,5.41-11-25-17.06,39-17.06-39-11,25-12.3-5.41Z"/><path class="cls-2" d="M1502.07,430.22c-7,0-12.3,5.08-12.3,11.64v31.49c0,14.35-12.05,25.26-26,25.26h-2.05V485h2.05c7,0,12.3-5.08,12.3-11.64V441.87c0-14.35,12.05-25.26,26-25.26h2v13.61Z"/><path class="cls-2" d="M1511.34,486.31a8.2,8.2,0,0,1,0-16.4,8.2,8.2,0,0,1,0,16.4Z"/><path class="cls-2" d="M153.67,516.32h13.69v17.14h14.35v13.61H167.37v11c0,6.56,5.33,11.64,12.3,11.64h2v13.61h-2c-13.94,0-26-10.91-26-25.26v-11h-6.81V533.46h6.81Z"/><path class="cls-2" d="M228.46,547.07V533.46h13.69v47.81H228.46v-20.5H208v20.5H194.26V516.32H208v30.75Z"/><path class="cls-2" d="M278.31,576.51h2.05v13.61h-2.05a25.86,25.86,0,0,1-25.91-25.91v-6.89a26,26,0,0,1,51.91,0v8.94h-38A12.38,12.38,0,0,0,278.31,576.51Zm.08-31.49a12.32,12.32,0,0,0-11.32,7.54h22.55A12.42,12.42,0,0,0,278.39,545Z"/><path class="cls-2" d="M382.45,528.62c-7,0-12.3,5.08-12.3,11.64v31.49c0,14.35-12.05,25.26-26,25.26h-2V583.4h2c7,0,12.3-5.08,12.3-11.64V540.27c0-14.35,12.05-25.26,26-25.26h2v13.61Z"/><path class="cls-2" d="M423.94,547.07V533.46h13.69v47.81H423.94v-20.5h-20.5v20.5H389.75V516.32h13.69v30.75Z"/><path class="cls-2" d="M499.79,526.57v61.5H486.1v-8a24.52,24.52,0,0,1-12.3,3.2,26,26,0,0,1,0-51.91,24.53,24.53,0,0,1,12.3,3.2v-8Zm-38.21,30.83a12.26,12.26,0,0,0,24.52,0,12.26,12.26,0,1,0-24.52,0Z"/><path class="cls-2" d="M511.6,597.42v-81.1h13.69v41.9l22.06-27.72,10.5,8.61-11.81,15,16.56,20.75-10.41,8.69-14.84-18.45Z"/><path class="cls-2" d="M575.64,529.36a8.2,8.2,0,1,1,8.2-8.2A8.17,8.17,0,0,1,575.64,529.36Zm6.81,51.91H568.75V533.46h13.69Z"/><path class="cls-2" d="M642.14,596.77l-34.19-41.25v25.75H594.25V518l34.19,41.25V533.46h13.69Z"/><path class="cls-2" d="M652.39,557.32a25.86,25.86,0,0,1,25.91-25.91,24.53,24.53,0,0,1,12.3,3.2v-8H704.3V571a26,26,0,0,1-26,26h-2V583.07C664.69,583.07,652.39,571.67,652.39,557.32Zm38.21,0a12.3,12.3,0,1,0-12.3,12.3A12.55,12.55,0,0,0,690.6,557.32Z"/><path class="cls-2" d="M800.65,557.41a26,26,0,1,1-26-26A25.93,25.93,0,0,1,800.65,557.41Zm-38.21,0a12.26,12.26,0,0,0,24.52,0,12.26,12.26,0,1,0-24.52,0Z"/><path class="cls-2" d="M815.24,540.27c0-14.35,12.05-25.26,26-25.26h2v13.61h-2c-7,0-12.3,5.08-12.3,11.64v6.81h14.35v13.69H828.93v11c0,14.35-12.05,25.26-26,25.26h-2V583.4h2c7,0,12.3-5.08,12.3-11.64v-11h-6.81V547.07h6.81Z"/><path class="cls-2" d="M888.79,516.32h13.69v17.14h14.35v13.61H902.49v11c0,6.56,5.33,11.64,12.3,11.64h2v13.61h-2c-13.94,0-26-10.91-26-25.26v-11H882V533.46h6.81Z"/><path class="cls-2" d="M963.58,547.07V533.46h13.69v47.81H963.58v-20.5h-20.5v20.5H929.38V516.32h13.69v30.75Z"/><path class="cls-2" d="M1013.43,576.51h2.05v13.61h-2.05a25.86,25.86,0,0,1-25.91-25.91v-6.89a26,26,0,0,1,51.91,0v8.94h-38A12.38,12.38,0,0,0,1013.43,576.51Zm.08-31.49a12.32,12.32,0,0,0-11.32,7.54h22.55A12.42,12.42,0,0,0,1013.51,545Z"/><path class="cls-2" d="M1082.31,557.32a25.86,25.86,0,0,1,25.91-25.91,24.53,24.53,0,0,1,12.3,3.2v-8h13.69V571a26,26,0,0,1-26,26h-2V583.07C1094.61,583.07,1082.31,571.67,1082.31,557.32Zm38.21,0a12.3,12.3,0,1,0-12.3,12.3A12.55,12.55,0,0,0,1120.52,557.32Z"/><path class="cls-2" d="M1170.38,576.51h2.05v13.61h-2.05a25.86,25.86,0,0,1-25.91-25.91v-6.89a26,26,0,0,1,51.91,0v8.94h-38A12.38,12.38,0,0,0,1170.38,576.51Zm.08-31.49a12.32,12.32,0,0,0-11.32,7.54h22.55A12.42,12.42,0,0,0,1170.46,545Z"/><path class="cls-2" d="M1257,526.57v61.5h-13.69v-8a24.52,24.52,0,0,1-12.3,3.2,26,26,0,0,1,0-51.91,24.53,24.53,0,0,1,12.3,3.2v-8Zm-38.21,30.83a12.26,12.26,0,0,0,24.52,0,12.26,12.26,0,1,0-24.52,0Z"/><path class="cls-2" d="M1282.47,526.57v8a24.53,24.53,0,0,1,12.3-3.2h1.39v13.69h-1.39a12.16,12.16,0,0,0-12.3,12.22v23.94h-13.69V526.57Z"/><path class="cls-2" d="M1372,528.62c-7,0-12.3,5.08-12.3,11.64v31.49c0,14.35-12.05,25.26-26,25.26h-2.05V583.4h2.05c7,0,12.3-5.08,12.3-11.64V540.27c0-14.35,12.05-25.26,26-25.26h2v13.61Z"/><path class="cls-2" d="M1417,528.62l9.59,9.59-21.89,21.89V595h-13.61V560.11l-21.89-21.89,9.59-9.59,19.11,19.19Z"/><path class="cls-2" d="M1443.11,525.43l17.06,39,17.06-39,23.29,53.14-12.3,5.41-11-25-17.06,39-17.06-39-11,25-12.3-5.41Z"/><path class="cls-2" d="M1533.07,531.41a26,26,0,1,1,0,51.91,24.52,24.52,0,0,1-12.3-3.2v8h-13.69V516.32h13.69v18.29A24.53,24.53,0,0,1,1533.07,531.41Zm-12.3,26a12.3,12.3,0,1,0,12.3-12.3A12.21,12.21,0,0,0,1520.77,557.41Z"/><path class="cls-2" d="M1619.57,557.41a26,26,0,1,1-26-26A25.93,25.93,0,0,1,1619.57,557.41Zm-38.21,0a12.26,12.26,0,0,0,24.52,0,12.26,12.26,0,1,0-24.52,0Z"/><path class="cls-2" d="M1643.52,567.57h17.06v13.69h-30.75V516.32h13.69Z"/><path class="cls-2" d="M1676.81,529.36a8.2,8.2,0,1,1,8.2-8.2A8.17,8.17,0,0,1,1676.81,529.36Zm6.81,51.91h-13.69V533.46h13.69Z"/><path class="cls-2" d="M1746.26,533.46,1715.51,569h27.55v12.3h-54.45l30.75-35.51h-26.16v-12.3Z"/><path class="cls-2" d="M1777,576.51h2.05v13.61H1777a25.86,25.86,0,0,1-25.91-25.91v-6.89a26,26,0,0,1,51.91,0v8.94h-38A12.38,12.38,0,0,0,1777,576.51Zm.08-31.49a12.32,12.32,0,0,0-11.32,7.54h22.55A12.42,12.42,0,0,0,1777.09,545Z"/><path class="cls-2" d="M1841.22,528.62c-7,0-12.3,5.08-12.3,11.64v31.49c0,14.35-12.05,25.26-26,25.26h-2V583.4h2c7,0,12.3-5.08,12.3-11.64V540.27c0-14.35,12.05-25.26,26-25.26h2v13.61Z"/><path class="cls-2" d="M1859.26,581.27a21.79,21.79,0,0,1-11.64,19.35l-5.9-11.4a9,9,0,0,0,0-15.91l5.9-11.4A21.79,21.79,0,0,1,1859.26,581.27Z"/><path class="cls-2" d="M1908.79,516.32h13.69v17.14h14.35v13.61h-14.35v11c0,6.56,5.33,11.64,12.3,11.64h2v13.61h-2c-13.94,0-26-10.91-26-25.26v-11H1902V533.46h6.81Z"/><path class="cls-2" d="M1983.57,547.07V533.46h13.69v47.81h-13.69v-20.5h-20.5v20.5h-13.69V516.32h13.69v30.75Z"/><path class="cls-2" d="M2059.42,526.57v61.5h-13.69v-8a24.52,24.52,0,0,1-12.3,3.2,26,26,0,0,1,0-51.91,24.53,24.53,0,0,1,12.3,3.2v-8Zm-38.21,30.83a12.26,12.26,0,0,0,24.52,0,12.26,12.26,0,1,0-24.52,0Z"/><path class="cls-2" d="M2073.93,516.32h13.69v17.14H2102v13.61h-14.35v11c0,6.56,5.33,11.64,12.3,11.64h2v13.61h-2c-13.94,0-26-10.91-26-25.26v-11h-6.81V533.46h6.81Z"/><path class="cls-2" d="M2188.24,528.62l9.59,9.59-21.89,21.89V595h-13.61V560.11l-21.89-21.89,9.59-9.59,19.11,19.19Z"/><path class="cls-2" d="M2249.91,557.41a26,26,0,1,1-26-26A25.93,25.93,0,0,1,2249.91,557.41Zm-38.21,0a12.26,12.26,0,0,0,24.52,0,12.26,12.26,0,1,0-24.52,0Z"/><path class="cls-2" d="M2272.7,557.32a12.3,12.3,0,0,0,24.6,0V533.46H2311v23.86a26,26,0,0,1-52,0V533.46h13.69Z"/><path class="cls-2" d="M2406.2,526.57v61.5H2392.5v-8a24.52,24.52,0,0,1-12.3,3.2,26,26,0,0,1,0-51.91,24.53,24.53,0,0,1,12.3,3.2v-8ZM2368,557.41a12.26,12.26,0,0,0,24.52,0,12.26,12.26,0,1,0-24.52,0Z"/><path class="cls-2" d="M2431.7,526.57v8a24.53,24.53,0,0,1,12.3-3.2h1.39v13.69H2444a12.16,12.16,0,0,0-12.3,12.22v23.94H2418V526.57Z"/><path class="cls-2" d="M2477.7,576.51h2.05v13.61h-2.05a25.86,25.86,0,0,1-25.91-25.91v-6.89a26,26,0,0,1,51.91,0v8.94h-38A12.38,12.38,0,0,0,2477.7,576.51Zm.08-31.49a12.32,12.32,0,0,0-11.32,7.54H2489A12.42,12.42,0,0,0,2477.78,545Z"/><path class="cls-2" d="M2555,529.36a8.2,8.2,0,1,1,8.2-8.2A8.17,8.17,0,0,1,2555,529.36Zm6.81,51.91h-13.69V533.46h13.69Z"/><path class="cls-2" d="M2621.53,596.77l-34.19-41.25v25.75h-13.69V518l34.19,41.25V533.46h13.69Z"/><path class="cls-2" d="M2674.41,529.36a8.2,8.2,0,1,1,8.2-8.2A8.17,8.17,0,0,1,2674.41,529.36Zm6.81,51.91h-13.69V533.46h13.69Z"/><path class="cls-2" d="M2695.73,516.32h13.69v17.14h14.35v13.61h-14.35v11c0,6.56,5.33,11.64,12.3,11.64h2v13.61h-2c-13.94,0-26-10.91-26-25.26v-11h-6.81V533.46h6.81Z"/><path class="cls-2" d="M2767.73,528.62c-7,0-12.3,5.08-12.3,11.64v31.49c0,14.35-12.05,25.26-26,25.26h-2V583.4h2c7,0,12.3-5.08,12.3-11.64V540.27c0-14.35,12.05-25.26,26-25.26h2v13.61Z"/><path class="cls-2" d="M164.66,625v8a24.53,24.53,0,0,1,12.3-3.2h1.39v13.69H177a12.16,12.16,0,0,0-12.3,12.22v23.94H151V625Z"/><path class="cls-2" d="M236.66,625v61.5H223v-8a24.52,24.52,0,0,1-12.3,3.2,26,26,0,0,1,0-51.91A24.53,24.53,0,0,1,223,633v-8Zm-38.21,30.83a12.26,12.26,0,0,0,24.52,0,12.26,12.26,0,1,0-24.52,0Z"/><path class="cls-2" d="M296.35,695.17l-34.19-41.25v25.75H248.46v-63.3l34.19,41.25V631.86h13.69Z"/><path class="cls-2" d="M306.6,655.72a25.86,25.86,0,0,1,25.91-25.91,24.53,24.53,0,0,1,12.3,3.2v-8h13.69v44.44a26,26,0,0,1-26,26h-2V681.47C318.9,681.47,306.6,670.07,306.6,655.72Zm38.21,0a12.3,12.3,0,1,0-12.3,12.3A12.55,12.55,0,0,0,344.81,655.72Z"/><path class="cls-2" d="M394.67,674.91h2.05v13.61h-2.05a25.86,25.86,0,0,1-25.91-25.91v-6.89a26,26,0,0,1,51.91,0v8.94h-38A12.38,12.38,0,0,0,394.67,674.91Zm.08-31.49A12.32,12.32,0,0,0,383.43,651H406A12.42,12.42,0,0,0,394.75,643.42Z"/><path class="cls-2" d="M437,683.11a8.2,8.2,0,0,1,0-16.4,8.2,8.2,0,0,1,0,16.4Z"/><path class="cls-2" d="M153.67,713.12h13.69v17.14h14.35v13.61H167.37v11c0,6.56,5.33,11.64,12.3,11.64h2v13.61h-2c-13.94,0-26-10.91-26-25.26v-11h-6.81V730.26h6.81Z"/><path class="cls-2" d="M242.31,754.21a26,26,0,1,1-26-26A25.93,25.93,0,0,1,242.31,754.21Zm-38.21,0a12.26,12.26,0,0,0,24.52,0,12.26,12.26,0,1,0-24.52,0Z"/><path class="cls-2" d="M311.11,741.91a12.26,12.26,0,0,0,0,24.52,12.48,12.48,0,0,0,8.86-3.69l9.43,9.92a26.32,26.32,0,0,1-18.29,7.46,26,26,0,0,1,0-51.91c7.13,0,13,2.62,18.29,7.46L320,745.6A12.63,12.63,0,0,0,311.11,741.91Z"/><path class="cls-2" d="M387.86,754.21a26,26,0,1,1-26-26A25.93,25.93,0,0,1,387.86,754.21Zm-38.21,0a12.26,12.26,0,0,0,24.52,0,12.26,12.26,0,1,0-24.52,0Z"/><path class="cls-2" d="M446,793.57l-34.19-41.25v25.75H398.11v-63.3L432.31,756V730.26H446Z"/><path class="cls-2" d="M505.69,793.57,471.5,752.32v25.75H457.81v-63.3L492,756V730.26h13.69Z"/><path class="cls-2" d="M541.86,773.31h2.05v13.61h-2.05A25.86,25.86,0,0,1,515.94,761v-6.89a26,26,0,0,1,51.91,0v8.94h-38A12.38,12.38,0,0,0,541.86,773.31Zm.08-31.49a12.32,12.32,0,0,0-11.32,7.54h22.55A12.42,12.42,0,0,0,541.94,741.82Z"/><path class="cls-2" d="M602.45,741.91a12.26,12.26,0,0,0,0,24.52,12.48,12.48,0,0,0,8.86-3.69l9.43,9.92a26.32,26.32,0,0,1-18.29,7.46,26,26,0,0,1,0-51.91c7.13,0,13,2.62,18.29,7.46l-9.43,9.92A12.63,12.63,0,0,0,602.45,741.91Z"/><path class="cls-2" d="M631.56,713.12h13.69v17.14h14.35v13.61H645.26v11c0,6.56,5.33,11.64,12.3,11.64h2v13.61h-2c-13.94,0-26-10.91-26-25.26v-11h-6.81V730.26h6.81Z"/><path class="cls-2" d="M745.87,725.42l9.59,9.59-21.89,21.89v34.85H720V756.91L698.06,735l9.59-9.59,19.11,19.19Z"/><path class="cls-2" d="M807.54,754.21a26,26,0,1,1-26-26A25.93,25.93,0,0,1,807.54,754.21Zm-38.21,0a12.26,12.26,0,0,0,24.52,0,12.26,12.26,0,1,0-24.52,0Z"/><path class="cls-2" d="M830.33,754.12a12.3,12.3,0,0,0,24.6,0V730.26h13.69v23.86a26,26,0,0,1-52,0V730.26h13.69Z"/><path class="cls-2" d="M893,723.37v8a24.53,24.53,0,0,1,12.3-3.2h1.39v13.69h-1.39A12.16,12.16,0,0,0,893,754.12v23.94H879.28V723.37Z"/><path class="cls-2" d="M947.26,754.12a25.86,25.86,0,0,1,25.91-25.91,24.53,24.53,0,0,1,12.3,3.2v-8h13.69v44.44a26,26,0,0,1-26,26h-2V779.87C959.56,779.87,947.26,768.48,947.26,754.12Zm38.21,0a12.3,12.3,0,1,0-12.3,12.3A12.55,12.55,0,0,0,985.47,754.12Z"/><path class="cls-2" d="M1024.67,723.37v8a24.53,24.53,0,0,1,12.3-3.2h1.39v13.69H1037a12.16,12.16,0,0,0-12.3,12.22v23.94H1011V723.37Z"/><path class="cls-2" d="M1096.67,723.37v61.5H1083v-8a24.52,24.52,0,0,1-12.3,3.2,26,26,0,0,1,0-51.91,24.53,24.53,0,0,1,12.3,3.2v-8Zm-38.21,30.83a12.26,12.26,0,0,0,24.52,0,12.26,12.26,0,1,0-24.52,0Z"/><path class="cls-2" d="M1122.17,723.37v8a24.53,24.53,0,0,1,12.3-3.2,26,26,0,1,1,0,51.91,24.52,24.52,0,0,1-12.3-3.2v14.84h-13.69V723.37Zm0,30.83a12.3,12.3,0,1,0,12.3-12.3A12.21,12.21,0,0,0,1122.17,754.21Z"/><path class="cls-2" d="M1184.32,723.37v8a24.53,24.53,0,0,1,12.3-3.2,26,26,0,1,1,0,51.91,24.52,24.52,0,0,1-12.3-3.2v14.84h-13.69V723.37Zm0,30.83a12.3,12.3,0,1,0,12.3-12.3A12.21,12.21,0,0,0,1184.32,754.21Z"/><path class="cls-2" d="M1246.48,764.37h17.06v13.69h-30.75V713.12h13.69Z"/><path class="cls-2" d="M1279.77,726.16a8.2,8.2,0,1,1,8.2-8.2A8.17,8.17,0,0,1,1279.77,726.16Zm6.81,51.91h-13.69V730.26h13.69Z"/><path class="cls-2" d="M1346.27,793.57l-34.19-41.25v25.75h-13.69v-63.3L1332.58,756V730.26h13.69Z"/><path class="cls-2" d="M1356.52,754.12a25.86,25.86,0,0,1,25.91-25.91,24.53,24.53,0,0,1,12.3,3.2v-8h13.69v44.44a26,26,0,0,1-26,26h-2V779.87C1368.82,779.87,1356.52,768.48,1356.52,754.12Zm38.21,0a12.3,12.3,0,1,0-12.3,12.3A12.55,12.55,0,0,0,1394.73,754.12Z"/><path class="cls-2" d="M1488.62,743.87V730.26h13.69v47.81h-13.69v-20.5h-20.5v20.5h-13.69V713.12h13.69v30.75Z"/><path class="cls-2" d="M1564.47,754.21a26,26,0,1,1-26-26A25.93,25.93,0,0,1,1564.47,754.21Zm-38.21,0a12.26,12.26,0,0,0,24.52,0,12.26,12.26,0,1,0-24.52,0Z"/><path class="cls-2" d="M1625.07,754.21a26,26,0,1,1-26-26A25.93,25.93,0,0,1,1625.07,754.21Zm-38.21,0a12.26,12.26,0,0,0,24.52,0,12.26,12.26,0,1,0-24.52,0Z"/><path class="cls-2" d="M1635.32,794.22v-81.1H1649V755l22.06-27.72,10.5,8.61-11.81,15,16.56,20.75-10.41,8.69-14.84-18.45Z"/><path class="cls-2" d="M1729.37,713.12h13.69v17.14h14.35v13.61h-14.35v11c0,6.56,5.33,11.64,12.3,11.64h2v13.61h-2c-13.94,0-26-10.91-26-25.26v-11h-6.81V730.26h6.81Z"/><path class="cls-2" d="M1818,754.21a26,26,0,1,1-26-26A25.93,25.93,0,0,1,1818,754.21Zm-38.21,0a12.26,12.26,0,0,0,24.52,0,12.26,12.26,0,1,0-24.52,0Z"/><path class="cls-2" d="M1912.8,723.37v61.5h-13.69v-8a24.52,24.52,0,0,1-12.3,3.2,26,26,0,0,1,0-51.91,24.53,24.53,0,0,1,12.3,3.2v-8Zm-38.21,30.83a12.26,12.26,0,0,0,24.52,0,12.26,12.26,0,1,0-24.52,0Z"/><path class="cls-2" d="M1957.24,754.12a25.86,25.86,0,0,1,25.91-25.91,24.53,24.53,0,0,1,12.3,3.2v-8h13.69v44.44a26,26,0,0,1-26,26h-2V779.87C1969.54,779.87,1957.24,768.48,1957.24,754.12Zm38.21,0a12.3,12.3,0,1,0-12.3,12.3A12.55,12.55,0,0,0,1995.46,754.12Z"/><path class="cls-2" d="M2045.31,773.31h2.05v13.61h-2.05A25.86,25.86,0,0,1,2019.4,761v-6.89a26,26,0,0,1,51.91,0v8.94h-38A12.38,12.38,0,0,0,2045.31,773.31Zm.08-31.49a12.32,12.32,0,0,0-11.32,7.54h22.55A12.42,12.42,0,0,0,2045.39,741.82Z"/><path class="cls-2" d="M2131.9,723.37v61.5h-13.69v-8a24.52,24.52,0,0,1-12.3,3.2,26,26,0,0,1,0-51.91,24.53,24.53,0,0,1,12.3,3.2v-8Zm-38.21,30.83a12.26,12.26,0,0,0,24.52,0,12.26,12.26,0,1,0-24.52,0Z"/><path class="cls-2" d="M2157.4,723.37v8a24.53,24.53,0,0,1,12.3-3.2h1.39v13.69h-1.39a12.16,12.16,0,0,0-12.3,12.22v23.94h-13.69V723.37Z"/><path class="cls-2" d="M2190.61,778.07A21.79,21.79,0,0,1,2179,797.42l-5.9-11.4a9,9,0,0,0,0-15.91l5.9-11.4A21.79,21.79,0,0,1,2190.61,778.07Z"/><path class="cls-2" d="M2261.79,741.91a12.26,12.26,0,0,0,0,24.52,12.48,12.48,0,0,0,8.86-3.69l9.43,9.92a26.32,26.32,0,0,1-18.29,7.46,26,26,0,0,1,0-51.91c7.13,0,13,2.62,18.29,7.46l-9.43,9.92A12.63,12.63,0,0,0,2261.79,741.91Z"/><path class="cls-2" d="M2301.89,764.37h17.06v13.69h-30.75V713.12h13.69Z"/><path class="cls-2" d="M2335.18,726.16a8.2,8.2,0,1,1,8.2-8.2A8.17,8.17,0,0,1,2335.18,726.16Zm6.81,51.91h-13.69V730.26H2342Z"/><path class="cls-2" d="M2378.15,741.91a12.26,12.26,0,0,0,0,24.52,12.48,12.48,0,0,0,8.86-3.69l9.43,9.92a26.32,26.32,0,0,1-18.29,7.46,26,26,0,0,1,0-51.91c7.13,0,13,2.62,18.29,7.46L2387,745.6A12.63,12.63,0,0,0,2378.15,741.91Z"/><path class="cls-2" d="M2404.55,794.22v-81.1h13.69V755l22.06-27.72,10.5,8.61-11.81,15,16.56,20.75-10.41,8.69-14.84-18.45Z"/><path class="cls-2" d="M2498.6,713.12h13.69v17.14h14.35v13.61H2512.3v11c0,6.56,5.33,11.64,12.3,11.64h2v13.61h-2c-13.94,0-26-10.91-26-25.26v-11h-6.81V730.26h6.81Z"/><path class="cls-2" d="M2573.39,743.87V730.26h13.69v47.81h-13.69v-20.5h-20.5v20.5h-13.69V713.12h13.69v30.75Z"/><path class="cls-2" d="M2623.24,773.31h2.05v13.61h-2.05A25.86,25.86,0,0,1,2597.33,761v-6.89a26,26,0,0,1,51.91,0v8.94h-38A12.38,12.38,0,0,0,2623.24,773.31Zm.08-31.49a12.32,12.32,0,0,0-11.32,7.54h22.55A12.42,12.42,0,0,0,2623.32,741.82Z"/><path class="cls-2" d="M2707.37,764.37h17.06v13.69h-30.75V713.12h13.69Z"/><path class="cls-2" d="M2758.13,773.31h2.05v13.61h-2.05A25.86,25.86,0,0,1,2732.22,761v-6.89a26,26,0,0,1,51.91,0v8.94h-38A12.38,12.38,0,0,0,2758.13,773.31Zm.08-31.49a12.32,12.32,0,0,0-11.32,7.54h22.55A12.42,12.42,0,0,0,2758.21,741.82Z"/><path class="cls-2" d="M2798.72,737.07c0-14.35,12.05-25.26,26-25.26h2v13.61h-2c-7,0-12.3,5.08-12.3,11.64v6.81h14.35v13.69h-14.35v11c0,14.35-12.05,25.26-26,25.26h-2V780.2h2c7,0,12.3-5.08,12.3-11.64v-11h-6.81V743.87h6.81Z"/><path class="cls-2" d="M2839.72,713.12h13.69v17.14h14.35v13.61h-14.35v11c0,6.56,5.33,11.64,12.3,11.64h2v13.61h-2c-13.94,0-26-10.91-26-25.26v-11h-6.81V730.26h6.81Z"/><path class="cls-2" d="M169,820.63l17.06,39,17.06-39,23.29,53.14-12.3,5.41-11-25-17.06,39-17.06-39-11,25-12.3-5.41Z"/><path class="cls-2" d="M280.85,852.61a26,26,0,1,1-26-26A25.93,25.93,0,0,1,280.85,852.61Zm-38.21,0a12.26,12.26,0,0,0,24.52,0,12.26,12.26,0,1,0-24.52,0Z"/><path class="cls-2" d="M303.65,852.52a12.3,12.3,0,0,0,24.6,0V828.66h13.69v23.86a26,26,0,0,1-52,0V828.66h13.69Z"/><path class="cls-2" d="M382.21,823.82c-7,0-12.3,5.08-12.3,11.64V867c0,14.35-12.05,25.26-26,25.26h-2.05V878.6h2.05c7,0,12.3-5.08,12.3-11.64V835.47c0-14.35,12.05-25.26,26-25.26h2v13.61Z"/><path class="cls-2" d="M408.12,871.71h2.05v13.61h-2.05a25.86,25.86,0,0,1-25.91-25.91v-6.89a26,26,0,0,1,51.91,0v8.94h-38A12.38,12.38,0,0,0,408.12,871.71Zm.08-31.49a12.32,12.32,0,0,0-11.32,7.54h22.55A12.42,12.42,0,0,0,408.2,840.22Z"/><path class="cls-2" d="M504.55,826.61a26,26,0,1,1,0,51.91,24.52,24.52,0,0,1-12.3-3.2v8H478.56V811.52h13.69v18.29A24.53,24.53,0,0,1,504.55,826.61Zm-12.3,26a12.3,12.3,0,1,0,12.3-12.3A12.21,12.21,0,0,0,492.25,852.61Z"/><path class="cls-2" d="M553.26,852.52a12.3,12.3,0,0,0,24.6,0V828.66h13.69v23.86a26,26,0,1,1-52,0V828.66h13.69Z"/><path class="cls-2" d="M604.92,811.52h13.69v17.14H633v13.61H618.61v11c0,6.56,5.33,11.64,12.3,11.64h2v13.61h-2c-13.94,0-26-10.91-26-25.26v-11h-6.81V828.66h6.81Z"/><path class="cls-2" d="M645.92,811.52h13.69v17.14H674v13.61H659.61v11c0,6.56,5.33,11.64,12.3,11.64h2v13.61h-2c-13.94,0-26-10.91-26-25.26v-11h-6.81V828.66h6.81Z"/><path class="cls-2" d="M734.56,852.61a26,26,0,1,1-26-26A25.93,25.93,0,0,1,734.56,852.61Zm-38.21,0a12.26,12.26,0,0,0,24.52,0,12.26,12.26,0,1,0-24.52,0Z"/><path class="cls-2" d="M792.7,892,758.5,850.72v25.75H744.81v-63.3L779,854.41V828.66H792.7Z"/><path class="cls-2" d="M856.74,848.92l17.06-39,17.06,39,11-25.09,12.3,5.49-23.29,53.05-17.06-39-17.06,39-23.29-53.05,12.3-5.49Z"/><path class="cls-2" d="M954.89,842.27V828.66h13.69v47.81H954.89V856h-20.5v20.5H920.7V811.52h13.69v30.75Z"/><path class="cls-2" d="M987.28,824.56a8.2,8.2,0,1,1,8.2-8.2A8.17,8.17,0,0,1,987.28,824.56Zm6.81,51.91H980.39V828.66h13.69Z"/><path class="cls-2" d="M1019.59,862.77h17.06v13.69h-30.75V811.52h13.69Z"/><path class="cls-2" d="M1070.35,871.71h2.05v13.61h-2.05a25.86,25.86,0,0,1-25.91-25.91v-6.89a26,26,0,0,1,51.91,0v8.94h-38A12.38,12.38,0,0,0,1070.35,871.71Zm.08-31.49a12.32,12.32,0,0,0-11.32,7.54h22.55A12.42,12.42,0,0,0,1070.43,840.22Z"/><path class="cls-2" d="M1175,842.27V828.66h13.69v47.81H1175V856h-20.5v20.5h-13.69V811.52h13.69v30.75Z"/><path class="cls-2" d="M1250.83,852.61a26,26,0,1,1-26-26A25.93,25.93,0,0,1,1250.83,852.61Zm-38.21,0a12.26,12.26,0,0,0,24.52,0,12.26,12.26,0,1,0-24.52,0Z"/><path class="cls-2" d="M1285.18,856.46l20.75-33.54,11.81,7.3-32.55,52.64-32.55-52.64,11.81-7.3Z"/><path class="cls-2" d="M1345.45,871.71h2.05v13.61h-2.05a25.86,25.86,0,0,1-25.91-25.91v-6.89a26,26,0,0,1,51.91,0v8.94h-38A12.38,12.38,0,0,0,1345.45,871.71Zm.08-31.49a12.32,12.32,0,0,0-11.32,7.54h22.55A12.42,12.42,0,0,0,1345.53,840.22Z"/><path class="cls-2" d="M1395.39,821.77v8a24.53,24.53,0,0,1,12.3-3.2h1.39v13.69h-1.39a12.16,12.16,0,0,0-12.3,12.22v23.94H1381.7V821.77Z"/><path class="cls-2" d="M1423.93,824.56a8.2,8.2,0,1,1,8.2-8.2A8.17,8.17,0,0,1,1423.93,824.56Zm6.81,51.91H1417V828.66h13.69Z"/><path class="cls-2" d="M1490.43,892l-34.19-41.25v25.75h-13.69v-63.3l34.19,41.25V828.66h13.69Z"/><path class="cls-2" d="M1500.68,852.52a25.86,25.86,0,0,1,25.91-25.91,24.53,24.53,0,0,1,12.3,3.2v-8h13.69v44.44a26,26,0,0,1-26,26h-2V878.27C1513,878.27,1500.68,866.87,1500.68,852.52Zm38.21,0a12.3,12.3,0,1,0-12.3,12.3A12.55,12.55,0,0,0,1538.89,852.52Z"/><path class="cls-2" d="M1648.93,852.61a26,26,0,1,1-26-26A25.93,25.93,0,0,1,1648.93,852.61Zm-38.21,0a12.26,12.26,0,0,0,24.52,0,12.26,12.26,0,1,0-24.52,0Z"/><path class="cls-2" d="M1683.29,856.46,1704,822.92l11.81,7.3-32.55,52.64-32.55-52.64,11.81-7.3Z"/><path class="cls-2" d="M1743.56,871.71h2.05v13.61h-2.05a25.86,25.86,0,0,1-25.91-25.91v-6.89a26,26,0,0,1,51.91,0v8.94h-38A12.38,12.38,0,0,0,1743.56,871.71Zm.08-31.49a12.32,12.32,0,0,0-11.32,7.54h22.55A12.42,12.42,0,0,0,1743.64,840.22Z"/><path class="cls-2" d="M1793.5,821.77v8a24.53,24.53,0,0,1,12.3-3.2h1.39v13.69h-1.39a12.16,12.16,0,0,0-12.3,12.22v23.94H1779.8V821.77Z"/><path class="cls-2" d="M1856.23,824.56a8.2,8.2,0,1,1,8.2-8.2A8.17,8.17,0,0,1,1856.23,824.56Zm6.81,51.91h-13.69V828.66H1863Z"/><path class="cls-2" d="M1877.54,811.52h13.69v17.14h14.35v13.61h-14.35v11c0,6.56,5.33,11.64,12.3,11.64h2v13.61h-2c-13.94,0-26-10.91-26-25.26v-11h-6.81V828.66h6.81Z"/><path class="cls-2" d="M1925.19,879.91a8.2,8.2,0,0,1,0-16.4,8.2,8.2,0,0,1,0,16.4Z"/><path class="cls-2" d="M1389.41,1140.72a25.86,25.86,0,0,1,25.91-25.91,24.53,24.53,0,0,1,12.3,3.2v-8h13.69v44.44a26,26,0,0,1-26,26h-2v-13.94C1401.71,1166.47,1389.41,1155.07,1389.41,1140.72Zm38.21,0a12.3,12.3,0,1,0-12.3,12.3A12.55,12.55,0,0,0,1427.62,1140.72Z"/><path class="cls-2" d="M1466.82,1110v8a24.53,24.53,0,0,1,12.3-3.2h1.39v13.69h-1.39a12.16,12.16,0,0,0-12.3,12.22v23.94h-13.69V1110Z"/><path class="cls-2" d="M1538.81,1110v61.5h-13.69v-8a24.52,24.52,0,0,1-12.3,3.2,26,26,0,0,1,0-51.91,24.53,24.53,0,0,1,12.3,3.2v-8Zm-38.21,30.83a12.26,12.26,0,0,0,24.52,0,12.26,12.26,0,1,0-24.52,0Z"/><path class="cls-2" d="M1564.31,1110v8a24.53,24.53,0,0,1,12.3-3.2,26,26,0,1,1,0,51.91,24.52,24.52,0,0,1-12.3-3.2v14.84h-13.69V1110Zm0,30.83a12.3,12.3,0,1,0,12.3-12.3A12.21,12.21,0,0,0,1564.31,1140.81Z"/><path class="cls-2" d="M1626.47,1110v8a24.53,24.53,0,0,1,12.3-3.2,26,26,0,1,1,0,51.91,24.52,24.52,0,0,1-12.3-3.2v14.84h-13.69V1110Zm0,30.83a12.3,12.3,0,1,0,12.3-12.3A12.21,12.21,0,0,0,1626.47,1140.81Z"/><path class="cls-2" d="M1688.62,1151h17.06v13.69h-30.75v-64.94h13.69Z"/><path class="cls-2" d="M1739.38,1159.91h2.05v13.61h-2.05a25.86,25.86,0,0,1-25.91-25.91v-6.89a26,26,0,0,1,51.91,0v8.94h-38A12.38,12.38,0,0,0,1739.38,1159.91Zm.08-31.49a12.32,12.32,0,0,0-11.32,7.54h22.55A12.42,12.42,0,0,0,1739.46,1128.42Z"/></g></g></svg>