<svg xmlns="http://www.w3.org/2000/svg" viewBox="0 0 3070.03 1694"><defs><style>.cls-1,.cls-3{stroke:#fff;stroke-miterlimit:10;}.cls-1{stroke-width:27.03px;}.cls-2{fill:#fff;}.cls-3{fill:none;stroke-width:3px;}</style></defs><title>Element 44</title><g id="Ebene_2" data-name="Ebene 2"><g id="Ebene_1-2" data-name="Ebene 1"><rect class="cls-1" x="13.51" y="13.51" width="3043" height="1666.98" rx="40" ry="40"/><rect class="cls-2" x="245.01" y="924.22" width="441" height="128.97" rx="41" ry="41" transform="translate(931.03 1977.42) rotate(180)"/><rect x="419.75" y="989.32" width="109.73" height="16.03"/><rect x="513.45" y="972.06" width="16.03" height="33.29"/><rect x="419.75" y="972.06" width="16.03" height="33.29"/><rect class="cls-2" x="313.37" y="1143.84" width="137.29" height="128.97" rx="41" ry="41" transform="translate(764.04 2416.65) rotate(180)"/><path d="M406.45,1178.75v59.68H393.16v-7.72a23.81,23.81,0,0,1-11.94,3.1,25.18,25.18,0,0,1,0-50.37,23.8,23.8,0,0,1,11.94,3.1v-7.8Zm-37.08,29.92a11.9,11.9,0,0,0,23.79,0,11.9,11.9,0,1,0-23.79,0Z"/><rect class="cls-2" x="479.79" y="1143.84" width="137.29" height="128.97" rx="41" ry="41" transform="translate(1096.87 2416.65) rotate(180)"/><path d="M580.66,1226.49l-9.23,9.23-8.35-8.35a25.19,25.19,0,0,1-42-18.78,25.09,25.09,0,0,1,25.14-25.14,23.8,23.8,0,0,1,11.94,3.1V1168.8h13.29v48.46Zm-46.31-17.82a11.9,11.9,0,0,0,23.79,0,11.9,11.9,0,1,0-23.79,0Z"/><path class="cls-3" d="M1794,1205H1653.24s-5.26-101.3,67.1-169.71c45.37-42.9,73.67-38.15,73.67-38.15v72.36s-30.26,31.57,0,67.1Z"/><path class="cls-2" d="M1811,1205h140.77s5.26-101.3-67.1-169.71c-45.37-42.9-73.67-38.15-73.67-38.15v72.36s30.26,31.57,0,67.1Z"/><path class="cls-2" d="M169,160.07l17.06-39,17.06,39,11-25.09,12.3,5.49-23.29,53.05-17.06-39-17.06,39-23.29-53.05L158,135Z"/><path class="cls-2" d="M254.81,182.86h2.05v13.61h-2.05a25.86,25.86,0,0,1-25.91-25.91v-6.89a26,26,0,0,1,51.91,0v8.94h-38A12.38,12.38,0,0,0,254.81,182.86Zm.08-31.49a12.32,12.32,0,0,0-11.32,7.54h22.55A12.42,12.42,0,0,0,254.89,151.38Z"/><path class="cls-2" d="M304.75,173.93H321.8v13.69H291.05V122.68h13.69Z"/><path class="cls-2" d="M355.51,151.46a12.26,12.26,0,0,0,0,24.52,12.48,12.48,0,0,0,8.86-3.69l9.43,9.92a26.32,26.32,0,0,1-18.29,7.46,26,26,0,0,1,0-51.91c7.13,0,13,2.62,18.29,7.46l-9.43,9.92A12.63,12.63,0,0,0,355.51,151.46Z"/><path class="cls-2" d="M432.26,163.76a26,26,0,1,1-26-26A25.93,25.93,0,0,1,432.26,163.76Zm-38.21,0a12.26,12.26,0,0,0,24.52,0,12.26,12.26,0,1,0-24.52,0Z"/><path class="cls-2" d="M458.09,131.78l17.06,39,17.06-39,23.29,53.14-12.3,5.41-11-25-17.06,39-17.06-39-11,25-12.3-5.41Z"/><path class="cls-2" d="M543.94,182.86H546v13.61h-2.05A25.86,25.86,0,0,1,518,170.56v-6.89a26,26,0,0,1,51.91,0v8.94h-38A12.38,12.38,0,0,0,543.94,182.86Zm.08-31.49a12.32,12.32,0,0,0-11.32,7.54h22.55A12.42,12.42,0,0,0,544,151.38Z"/><path class="cls-2" d="M617.08,122.68h13.69v17.14h14.35v13.61H630.78v11c0,6.56,5.33,11.64,12.3,11.64h2v13.61h-2c-13.94,0-26-10.91-26-25.26v-11h-6.81V139.81h6.81Z"/><path class="cls-2" d="M705.73,163.76a26,26,0,1,1-26-26A25.93,25.93,0,0,1,705.73,163.76Zm-38.21,0a12.26,12.26,0,0,0,24.52,0,12.26,12.26,0,1,0-24.52,0Z"/><path class="cls-2" d="M752.87,122.68h13.69v17.14h14.35v13.61H766.57v11c0,6.56,5.33,11.64,12.3,11.64h2v13.61h-2c-13.94,0-26-10.91-26-25.26v-11h-6.81V139.81h6.81Z"/><path class="cls-2" d="M841.52,163.76a26,26,0,1,1-26-26A25.93,25.93,0,0,1,841.52,163.76Zm-38.21,0a12.26,12.26,0,0,0,24.52,0,12.26,12.26,0,1,0-24.52,0Z"/><path class="cls-2" d="M850.21,163.68a25.86,25.86,0,0,1,25.91-25.91,24.53,24.53,0,0,1,12.3,3.2v-8h13.69v44.44a26,26,0,0,1-26,26h-2V189.42C862.51,189.42,850.21,178,850.21,163.68Zm38.21,0a12.3,12.3,0,1,0-12.3,12.3A12.55,12.55,0,0,0,888.42,163.68Z"/><path class="cls-2" d="M912.36,163.68a25.86,25.86,0,0,1,25.91-25.91,24.53,24.53,0,0,1,12.3,3.2v-8h13.69v44.44a26,26,0,0,1-26,26h-2V189.42C924.66,189.42,912.36,178,912.36,163.68Zm38.21,0a12.3,12.3,0,1,0-12.3,12.3A12.55,12.55,0,0,0,950.58,163.68Z"/><path class="cls-2" d="M989.77,173.93h17.06v13.69H976.08V122.68h13.69Z"/><path class="cls-2" d="M1028.72,191.06a8.2,8.2,0,1,1,8.2-8.2A8.17,8.17,0,0,1,1028.72,191.06Zm-6.81-68.39h13.61v47.89h-13.61Z"/><path class="cls-2" d="M153.62,319.48h13.69v17.14h14.35v13.61H167.32v11c0,6.56,5.33,11.64,12.3,11.64h2v13.61h-2c-13.94,0-26-10.91-26-25.26v-11h-6.81V336.61h6.81Z"/><path class="cls-2" d="M228.41,350.23V336.61H242.1v47.81H228.41v-20.5h-20.5v20.5H194.21V319.48h13.69v30.75Z"/><path class="cls-2" d="M278.26,379.66h2.05v13.61h-2.05a25.86,25.86,0,0,1-25.91-25.91v-6.89a26,26,0,0,1,51.91,0v8.94h-38A12.38,12.38,0,0,0,278.26,379.66Zm.08-31.49A12.32,12.32,0,0,0,267,355.72h22.55A12.42,12.42,0,0,0,278.34,348.18Z"/><path class="cls-2" d="M399,360.56a26,26,0,1,1-26-26A25.93,25.93,0,0,1,399,360.56Zm-38.21,0a12.26,12.26,0,0,0,24.52,0,12.26,12.26,0,1,0-24.52,0Z"/><path class="cls-2" d="M435.29,334.56a26,26,0,1,1,0,51.91,24.52,24.52,0,0,1-12.3-3.2v8H409.3V319.48H423v18.29A24.53,24.53,0,0,1,435.29,334.56Zm-12.3,26a12.3,12.3,0,1,0,12.3-12.3A12.21,12.21,0,0,0,423,360.56Z"/><path class="cls-2" d="M487.85,374.17a26,26,0,0,1-26,26h-2V386.55h2a12.2,12.2,0,0,0,12.3-12.38V336.61h13.69ZM481,332.51a8.2,8.2,0,0,1,0-16.4,8.2,8.2,0,0,1,0,16.4Z"/><path class="cls-2" d="M524,379.66h2.05v13.61H524a25.86,25.86,0,0,1-25.91-25.91v-6.89a26,26,0,0,1,51.91,0v8.94H512A12.38,12.38,0,0,0,524,379.66Zm.08-31.49a12.32,12.32,0,0,0-11.32,7.54h22.55A12.42,12.42,0,0,0,524.1,348.18Z"/><path class="cls-2" d="M584.61,348.26a12.26,12.26,0,0,0,0,24.52,12.48,12.48,0,0,0,8.86-3.69L602.9,379a26.32,26.32,0,0,1-18.29,7.46,26,26,0,0,1,0-51.91c7.13,0,13,2.62,18.29,7.46l-9.43,9.92A12.63,12.63,0,0,0,584.61,348.26Z"/><path class="cls-2" d="M613.72,319.48h13.69v17.14h14.35v13.61H627.42v11c0,6.56,5.33,11.64,12.3,11.64h2v13.61h-2c-13.94,0-26-10.91-26-25.26v-11h-6.81V336.61h6.81Z"/><path class="cls-2" d="M658.9,332.51a8.2,8.2,0,1,1,8.2-8.2A8.17,8.17,0,0,1,658.9,332.51Zm6.81,51.91H652V336.61h13.69Z"/><path class="cls-2" d="M701.62,364.41l20.75-33.54,11.81,7.3-32.55,52.64-32.55-52.64,11.81-7.3Z"/><path class="cls-2" d="M761.89,379.66h2.05v13.61h-2.05A25.86,25.86,0,0,1,736,367.36v-6.89a26,26,0,0,1,51.91,0v8.94h-38A12.38,12.38,0,0,0,761.89,379.66Zm.08-31.49a12.32,12.32,0,0,0-11.32,7.54h22.55A12.42,12.42,0,0,0,762,348.18Z"/><path class="cls-2" d="M882.68,360.56a26,26,0,1,1-26-26A25.93,25.93,0,0,1,882.68,360.56Zm-38.21,0a12.26,12.26,0,0,0,24.52,0,12.26,12.26,0,1,0-24.52,0Z"/><path class="cls-2" d="M897.27,343.42c0-14.35,12.05-25.26,26-25.26h2v13.61h-2c-7,0-12.3,5.08-12.3,11.64v6.81h14.35v13.69H911v11c0,14.35-12.05,25.26-26,25.26h-2V386.55h2c7,0,12.3-5.08,12.3-11.64v-11h-6.81V350.23h6.81Z"/><path class="cls-2" d="M992.47,379.66h2.05v13.61h-2.05a25.86,25.86,0,0,1-25.91-25.91v-6.89a26,26,0,0,1,51.91,0v8.94h-38A12.38,12.38,0,0,0,992.47,379.66Zm.08-31.49a12.32,12.32,0,0,0-11.32,7.54h22.55A12.42,12.42,0,0,0,992.56,348.18Z"/><path class="cls-2" d="M1079.07,329.73v61.5h-13.69v-8a24.52,24.52,0,0,1-12.3,3.2,26,26,0,0,1,0-51.91,24.53,24.53,0,0,1,12.3,3.2v-8Zm-38.21,30.83a12.26,12.26,0,0,0,24.52,0,12.26,12.26,0,1,0-24.52,0Z"/><path class="cls-2" d="M1115.23,348.26a12.26,12.26,0,0,0,0,24.52,12.48,12.48,0,0,0,8.86-3.69l9.43,9.92a26.32,26.32,0,0,1-18.29,7.46,26,26,0,0,1,0-51.91c7.13,0,13,2.62,18.29,7.46l-9.43,9.92A12.63,12.63,0,0,0,1115.23,348.26Z"/><path class="cls-2" d="M1175.83,350.23V336.61h13.69v47.81h-13.69v-20.5h-20.5v20.5h-13.69V319.48h13.69v30.75Z"/><path class="cls-2" d="M1249.21,370.73h17.06v13.69h-30.75V319.48h13.69Z"/><path class="cls-2" d="M1300,379.66H1302v13.61H1300a25.86,25.86,0,0,1-25.91-25.91v-6.89a26,26,0,0,1,51.91,0v8.94h-38A12.38,12.38,0,0,0,1300,379.66Zm.08-31.49a12.32,12.32,0,0,0-11.32,7.54h22.55A12.42,12.42,0,0,0,1300.05,348.18Z"/><path class="cls-2" d="M1360.32,364.41l20.75-33.54,11.81,7.3-32.55,52.64-32.55-52.64,11.81-7.3Z"/><path class="cls-2" d="M1420.59,379.66h2.05v13.61h-2.05a25.86,25.86,0,0,1-25.91-25.91v-6.89a26,26,0,0,1,51.91,0v8.94h-38A12.38,12.38,0,0,0,1420.59,379.66Zm.08-31.49a12.32,12.32,0,0,0-11.32,7.54h22.55A12.42,12.42,0,0,0,1420.67,348.18Z"/><path class="cls-2" d="M1470.53,370.73h17.06v13.69h-30.75V319.48h13.69Z"/><path class="cls-2" d="M1538,332.51a8.2,8.2,0,1,1,8.2-8.2A8.17,8.17,0,0,1,1538,332.51Zm6.81,51.91h-13.69V336.61h13.69Z"/><path class="cls-2" d="M1590.33,331.78c-7,0-12.3,5.08-12.3,11.64v31.49c0,14.35-12.05,25.26-26,25.26H1550V386.55H1552c7,0,12.3-5.08,12.3-11.64V343.42c0-14.35,12.05-25.26,26-25.26h2v13.61Z"/><path class="cls-2" d="M1634.53,319.48h13.69v17.14h14.35v13.61h-14.35v11c0,6.56,5.33,11.64,12.3,11.64h2v13.61h-2c-13.94,0-26-10.91-26-25.26v-11h-6.81V336.61h6.81Z"/><path class="cls-2" d="M1723.17,360.56a26,26,0,1,1-26-26A25.93,25.93,0,0,1,1723.17,360.56Zm-38.21,0a12.26,12.26,0,0,0,24.52,0,12.26,12.26,0,1,0-24.52,0Z"/><path class="cls-2" d="M1781.31,329.73v8a24.53,24.53,0,0,1,12.3-3.2H1795v13.69h-1.39a12.16,12.16,0,0,0-12.3,12.22v23.94h-13.69V329.73Z"/><path class="cls-2" d="M1827.31,379.66h2.05v13.61h-2.05a25.86,25.86,0,0,1-25.91-25.91v-6.89a26,26,0,0,1,51.91,0v8.94h-38A12.38,12.38,0,0,0,1827.31,379.66Zm.08-31.49a12.32,12.32,0,0,0-11.32,7.54h22.55A12.42,12.42,0,0,0,1827.39,348.18Z"/><path class="cls-2" d="M1913.9,329.73v61.5h-13.69v-8a24.52,24.52,0,0,1-12.3,3.2,26,26,0,0,1,0-51.91,24.53,24.53,0,0,1,12.3,3.2v-8Zm-38.21,30.83a12.26,12.26,0,0,0,24.52,0,12.26,12.26,0,1,0-24.52,0Z"/><path class="cls-2" d="M1950.06,348.26a12.26,12.26,0,0,0,0,24.52,12.48,12.48,0,0,0,8.86-3.69l9.43,9.92a26.32,26.32,0,0,1-18.29,7.46,26,26,0,0,1,0-51.91c7.13,0,13,2.62,18.29,7.46l-9.43,9.92A12.63,12.63,0,0,0,1950.06,348.26Z"/><path class="cls-2" d="M2010.66,350.23V336.61h13.69v47.81h-13.69v-20.5h-20.5v20.5h-13.69V319.48h13.69v30.75Z"/><path class="cls-2" d="M2073.06,319.48h13.69v17.14h14.35v13.61h-14.35v11c0,6.56,5.33,11.64,12.3,11.64h2v13.61h-2c-13.94,0-26-10.91-26-25.26v-11h-6.81V336.61h6.81Z"/><path class="cls-2" d="M2147.84,350.23V336.61h13.69v47.81h-13.69v-20.5h-20.5v20.5h-13.69V319.48h13.69v30.75Z"/><path class="cls-2" d="M2197.7,379.66h2.05v13.61h-2.05a25.86,25.86,0,0,1-25.91-25.91v-6.89a26,26,0,0,1,51.91,0v8.94h-38A12.38,12.38,0,0,0,2197.7,379.66Zm.08-31.49a12.32,12.32,0,0,0-11.32,7.54H2209A12.42,12.42,0,0,0,2197.78,348.18Z"/><path class="cls-2" d="M2281.83,329.73v8a24.53,24.53,0,0,1,12.3-3.2h1.39v13.69h-1.39a12.16,12.16,0,0,0-12.3,12.22v23.94h-13.69V329.73Z"/><path class="cls-2" d="M2327.83,379.66h2.05v13.61h-2.05a25.86,25.86,0,0,1-25.91-25.91v-6.89a26,26,0,0,1,51.91,0v8.94h-38A12.38,12.38,0,0,0,2327.83,379.66Zm.08-31.49a12.32,12.32,0,0,0-11.32,7.54h22.55A12.42,12.42,0,0,0,2327.91,348.18Z"/><path class="cls-2" d="M2414.42,319.48v71.75h-13.69v-8a24.52,24.52,0,0,1-12.3,3.2,26,26,0,0,1,0-51.91,24.53,24.53,0,0,1,12.3,3.2V319.48Zm-38.21,41.08a12.26,12.26,0,0,0,24.52,0,12.26,12.26,0,1,0-24.52,0Z"/><path class="cls-2" d="M2510.53,384.42h-13.61v-20.5h-18.45v10.25a26,26,0,0,1-26,26h-2V386.47h2a12.5,12.5,0,0,0,12.3-12.3V363.92H2458V350.23h6.81v-6.81c0-14.35,12.05-25.26,26-25.26h19.76v13.61h-19.76c-6.64,0-12.3,5.49-12.3,11.64v6.81h32.06Z"/><path class="cls-2" d="M2568.91,399.92l-34.19-41.25v25.75H2521v-63.3l34.19,41.25V336.61h13.69Z"/><path class="cls-2" d="M2587.6,332.51a8.2,8.2,0,1,1,8.2-8.2A8.17,8.17,0,0,1,2587.6,332.51Zm6.81,51.91h-13.69V336.61h13.69Z"/><path class="cls-2" d="M2639.92,331.78c-7,0-12.3,5.08-12.3,11.64v31.49c0,14.35-12.05,25.26-26,25.26h-2V386.55h2c7,0,12.3-5.08,12.3-11.64V343.42c0-14.35,12.05-25.26,26-25.26h2v13.61Z"/><path class="cls-2" d="M2681.41,350.23V336.61h13.69v47.81h-13.69v-20.5h-20.5v20.5h-13.69V319.48h13.69v30.75Z"/><path class="cls-2" d="M164.61,428.13v8a24.53,24.53,0,0,1,12.3-3.2,26,26,0,1,1,0,51.91,24.52,24.52,0,0,1-12.3-3.2v14.84H150.92V428.13Zm0,30.83a12.3,12.3,0,1,0,12.3-12.3A12.21,12.21,0,0,0,164.61,459Z"/><path class="cls-2" d="M226.77,469.13h17.06v13.69H213.07V417.88h13.69Z"/><path class="cls-2" d="M303.52,428.13v61.5H289.82v-8a24.52,24.52,0,0,1-12.3,3.2,26,26,0,0,1,0-51.91,24.53,24.53,0,0,1,12.3,3.2v-8ZM265.31,459a12.26,12.26,0,0,0,24.52,0,12.26,12.26,0,1,0-24.52,0Z"/><path class="cls-2" d="M318,417.88h13.69V435h14.35v13.61H331.73v11c0,6.56,5.33,11.64,12.3,11.64h2v13.61h-2c-13.94,0-26-10.91-26-25.26v-11h-6.81V435H318Z"/><path class="cls-2" d="M362.31,441.82c0-14.35,12.05-25.26,26-25.26h2v13.61h-2c-7,0-12.3,5.08-12.3,11.64v6.81h14.35v13.69H376v11c0,14.35-12.05,25.26-26,25.26h-2V485h2c7,0,12.3-5.08,12.3-11.64v-11H355.5V448.63h6.81Z"/><path class="cls-2" d="M449.31,459a26,26,0,1,1-26-26A25.93,25.93,0,0,1,449.31,459Zm-38.21,0a12.26,12.26,0,0,0,24.52,0,12.26,12.26,0,1,0-24.52,0Z"/><path class="cls-2" d="M473.26,428.13v8a24.53,24.53,0,0,1,12.3-3.2h1.39v13.69h-1.39a12.16,12.16,0,0,0-12.3,12.22v23.94H459.56V428.13Z"/><path class="cls-2" d="M509.66,427l17.06,39,17.06-39,23.29,53.14-12.3,5.41-11-25-17.06,39-17.06-39-11,25-12.3-5.41Z"/><path class="cls-2" d="M591.75,482.82a21.79,21.79,0,0,1-11.64,19.35l-5.9-11.4a9,9,0,0,0,0-15.91l5.9-11.4A21.79,21.79,0,0,1,591.75,482.82Z"/><path class="cls-2" d="M664.56,433a26,26,0,1,1,0,51.91,24.52,24.52,0,0,1-12.3-3.2v8H638.57V417.88h13.69v18.29A24.53,24.53,0,0,1,664.56,433Zm-12.3,26a12.3,12.3,0,1,0,12.3-12.3A12.21,12.21,0,0,0,652.26,459Z"/><path class="cls-2" d="M738.44,430.18l9.59,9.59-21.89,21.89v34.85H712.53V461.66l-21.89-21.89,9.59-9.59,19.11,19.19Z"/><path class="cls-2" d="M790.76,417.88h13.69V435H818.8v13.61H804.45v11c0,6.56,5.33,11.64,12.3,11.64h2v13.61h-2c-13.94,0-26-10.91-26-25.26v-11H784V435h6.81Z"/><path class="cls-2" d="M879.4,459a26,26,0,1,1-26-26A25.93,25.93,0,0,1,879.4,459Zm-38.21,0a12.26,12.26,0,0,0,24.52,0,12.26,12.26,0,1,0-24.52,0Z"/><path class="cls-2" d="M888.09,458.88A25.86,25.86,0,0,1,914,433a24.53,24.53,0,0,1,12.3,3.2v-8H940v44.44a26,26,0,0,1-26,26h-2V484.62C900.39,484.62,888.09,473.23,888.09,458.88Zm38.21,0a12.3,12.3,0,1,0-12.3,12.3A12.55,12.55,0,0,0,926.3,458.88Z"/><path class="cls-2" d="M950.25,458.88A25.86,25.86,0,0,1,976.16,433a24.53,24.53,0,0,1,12.3,3.2v-8h13.69v44.44a26,26,0,0,1-26,26h-2V484.62C962.55,484.62,950.25,473.23,950.25,458.88Zm38.21,0a12.3,12.3,0,1,0-12.3,12.3A12.55,12.55,0,0,0,988.46,458.88Z"/><path class="cls-2" d="M1027.66,469.13h17.06v13.69H1014V417.88h13.69Z"/><path class="cls-2" d="M1060.95,430.91a8.2,8.2,0,1,1,8.2-8.2A8.17,8.17,0,0,1,1060.95,430.91Zm6.81,51.91h-13.69V435h13.69Z"/><path class="cls-2" d="M1127.45,498.32l-34.19-41.25v25.75h-13.69v-63.3l34.19,41.25V435h13.69Z"/><path class="cls-2" d="M1137.7,458.88A25.86,25.86,0,0,1,1163.61,433a24.53,24.53,0,0,1,12.3,3.2v-8h13.69v44.44a26,26,0,0,1-26,26h-2V484.62C1150,484.62,1137.7,473.23,1137.7,458.88Zm38.21,0a12.3,12.3,0,1,0-12.3,12.3A12.55,12.55,0,0,0,1175.91,458.88Z"/><path class="cls-2" d="M1261.6,433a26,26,0,1,1,0,51.91,24.52,24.52,0,0,1-12.3-3.2v8H1235.6V417.88h13.69v18.29A24.53,24.53,0,0,1,1261.6,433Zm-12.3,26a12.3,12.3,0,1,0,12.3-12.3A12.21,12.21,0,0,0,1249.3,459Z"/><path class="cls-2" d="M1322.11,478.06h2.05v13.61h-2.05a25.86,25.86,0,0,1-25.91-25.91v-6.89a26,26,0,0,1,51.91,0v8.94h-38A12.38,12.38,0,0,0,1322.11,478.06Zm.08-31.49a12.32,12.32,0,0,0-11.32,7.54h22.55A12.42,12.42,0,0,0,1322.19,446.58Z"/><path class="cls-2" d="M1361.06,417.88h13.69V435h14.35v13.61h-14.35v11c0,6.56,5.33,11.64,12.3,11.64h2v13.61h-2c-13.94,0-26-10.91-26-25.26v-11h-6.81V435h6.81Z"/><path class="cls-2" d="M1417.4,455.27l17.06-39,17.06,39,11-25.09,12.3,5.49-23.29,53.05-17.06-39-17.06,39-23.29-53.05,12.3-5.49Z"/><path class="cls-2" d="M1503.25,478.06h2.05v13.61h-2.05a25.86,25.86,0,0,1-25.91-25.91v-6.89a26,26,0,0,1,51.91,0v8.94h-38A12.38,12.38,0,0,0,1503.25,478.06Zm.08-31.49a12.32,12.32,0,0,0-11.32,7.54h22.55A12.42,12.42,0,0,0,1503.33,446.58Z"/><path class="cls-2" d="M1563.85,478.06h2.05v13.61h-2.05a25.86,25.86,0,0,1-25.91-25.91v-6.89a26,26,0,0,1,51.91,0v8.94h-38A12.38,12.38,0,0,0,1563.85,478.06Zm.08-31.49a12.32,12.32,0,0,0-11.32,7.54h22.55A12.42,12.42,0,0,0,1563.93,446.58Z"/><path class="cls-2" d="M1648,498.32l-34.19-41.25v25.75h-13.69v-63.3l34.19,41.25V435H1648Z"/><path class="cls-2" d="M1696.69,417.88h13.69V435h14.35v13.61h-14.35v11c0,6.56,5.33,11.64,12.3,11.64h2v13.61h-2c-13.94,0-26-10.91-26-25.26v-11h-6.81V435h6.81Z"/><path class="cls-2" d="M1753,455.27l17.06-39,17.06,39,11-25.09,12.3,5.49-23.29,53.05-17.06-39-17.06,39-23.29-53.05,12.3-5.49Z"/><path class="cls-2" d="M1864.87,459a26,26,0,1,1-26-26A25.93,25.93,0,0,1,1864.87,459Zm-38.21,0a12.26,12.26,0,0,0,24.52,0,12.26,12.26,0,1,0-24.52,0Z"/><path class="cls-2" d="M1933.67,446.66a12.26,12.26,0,0,0,0,24.52,12.48,12.48,0,0,0,8.86-3.69l9.43,9.92a26.32,26.32,0,0,1-18.29,7.46,26,26,0,0,1,0-51.91c7.13,0,13,2.62,18.29,7.46l-9.43,9.92A12.63,12.63,0,0,0,1933.67,446.66Z"/><path class="cls-2" d="M2010.42,459a26,26,0,1,1-26-26A25.93,25.93,0,0,1,2010.42,459Zm-38.21,0a12.26,12.26,0,0,0,24.52,0,12.26,12.26,0,1,0-24.52,0Z"/><path class="cls-2" d="M2034.36,469.13h17.06v13.69h-30.75V417.88h13.69Z"/><path class="cls-2" d="M2108.82,459a26,26,0,1,1-26-26A25.93,25.93,0,0,1,2108.82,459Zm-38.21,0a12.26,12.26,0,0,0,24.52,0,12.26,12.26,0,1,0-24.52,0Z"/><path class="cls-2" d="M2132.76,428.13v8a24.53,24.53,0,0,1,12.3-3.2h1.39v13.69h-1.39a12.16,12.16,0,0,0-12.3,12.22v23.94h-13.69V428.13Z"/><path class="cls-2" d="M2206.64,427l17.06,39,17.06-39L2264,480.11l-12.3,5.41-11-25-17.06,39-17.06-39-11,25-12.3-5.41Z"/><path class="cls-2" d="M2318.49,459a26,26,0,1,1-26-26A25.93,25.93,0,0,1,2318.49,459Zm-38.21,0a12.26,12.26,0,0,0,24.52,0,12.26,12.26,0,1,0-24.52,0Z"/><path class="cls-2" d="M2379.09,417.88v71.75h-13.69v-8a24.52,24.52,0,0,1-12.3,3.2,26,26,0,0,1,0-51.91,24.53,24.53,0,0,1,12.3,3.2V417.88ZM2340.87,459a12.26,12.26,0,0,0,24.52,0,12.26,12.26,0,1,0-24.52,0Z"/><path class="cls-2" d="M2415.25,478.06h2.05v13.61h-2.05a25.86,25.86,0,0,1-25.91-25.91v-6.89a26,26,0,0,1,51.91,0v8.94h-38A12.38,12.38,0,0,0,2415.25,478.06Zm.08-31.49a12.32,12.32,0,0,0-11.32,7.54h22.55A12.42,12.42,0,0,0,2415.33,446.58Z"/><path class="cls-2" d="M2479.45,430.18c-7,0-12.3,5.08-12.3,11.64v31.49c0,14.35-12.05,25.26-26,25.26h-2V485h2c7,0,12.3-5.08,12.3-11.64V441.82c0-14.35,12.05-25.26,26-25.26h2v13.61Z"/><path class="cls-2" d="M2488.72,486.26a8.2,8.2,0,0,1,0-16.4,8.2,8.2,0,0,1,0,16.4Z"/><path class="cls-2" d="M175.27,576.46h2.05v13.61h-2.05a25.86,25.86,0,0,1-25.91-25.91v-6.89a26,26,0,0,1,51.91,0v8.94h-38A12.38,12.38,0,0,0,175.27,576.46Zm.08-31.49A12.32,12.32,0,0,0,164,552.52h22.55A12.42,12.42,0,0,0,175.35,545Z"/><path class="cls-2" d="M261.86,526.53V588H248.17v-8a24.52,24.52,0,0,1-12.3,3.2,26,26,0,0,1,0-51.91,24.53,24.53,0,0,1,12.3,3.2v-8Zm-38.21,30.83a12.26,12.26,0,0,0,24.52,0,12.26,12.26,0,1,0-24.52,0Z"/><path class="cls-2" d="M298,545.06a12.26,12.26,0,0,0,0,24.52,12.48,12.48,0,0,0,8.86-3.69l9.43,9.92A26.32,26.32,0,0,1,298,583.27a26,26,0,0,1,0-51.91c7.13,0,13,2.62,18.29,7.46l-9.43,9.92A12.63,12.63,0,0,0,298,545.06Z"/><path class="cls-2" d="M358.62,547V533.41h13.69v47.81H358.62v-20.5h-20.5v20.5H324.43V516.28h13.69V547Z"/><path class="cls-2" d="M442.67,545.06a12.26,12.26,0,0,0,0,24.52,12.48,12.48,0,0,0,8.86-3.69l9.43,9.92a26.32,26.32,0,0,1-18.29,7.46,26,26,0,0,1,0-51.91c7.13,0,13,2.62,18.29,7.46l-9.43,9.92A12.63,12.63,0,0,0,442.67,545.06Z"/><path class="cls-2" d="M519.42,557.36a26,26,0,1,1-26-26A25.93,25.93,0,0,1,519.42,557.36Zm-38.21,0a12.26,12.26,0,0,0,24.52,0,12.26,12.26,0,1,0-24.52,0Z"/><path class="cls-2" d="M543.36,567.53h17.06v13.69H529.67V516.28h13.69Z"/><path class="cls-2" d="M617.82,557.36a26,26,0,1,1-26-26A25.93,25.93,0,0,1,617.82,557.36Zm-38.21,0a12.26,12.26,0,0,0,24.52,0,12.26,12.26,0,1,0-24.52,0Z"/><path class="cls-2" d="M641.76,526.53v8a24.53,24.53,0,0,1,12.3-3.2h1.39v13.69h-1.39a12.16,12.16,0,0,0-12.3,12.22v23.94H628.07V526.53Z"/><path class="cls-2" d="M715.64,525.38l17.06,39,17.06-39L773,578.51l-12.3,5.41-11-25-17.06,39-17.06-39-11,25-12.3-5.41Z"/><path class="cls-2" d="M827.49,557.36a26,26,0,1,1-26-26A25.93,25.93,0,0,1,827.49,557.36Zm-38.21,0a12.26,12.26,0,0,0,24.52,0,12.26,12.26,0,1,0-24.52,0Z"/><path class="cls-2" d="M888.09,516.28V588H874.4v-8a24.52,24.52,0,0,1-12.3,3.2,26,26,0,0,1,0-51.91,24.53,24.53,0,0,1,12.3,3.2V516.28Zm-38.21,41.08a12.26,12.26,0,0,0,24.52,0,12.26,12.26,0,1,0-24.52,0Z"/><path class="cls-2" d="M924.25,576.46h2.05v13.61h-2.05a25.86,25.86,0,0,1-25.91-25.91v-6.89a26,26,0,0,1,51.91,0v8.94h-38A12.38,12.38,0,0,0,924.25,576.46Zm.08-31.49A12.32,12.32,0,0,0,913,552.52h22.55A12.42,12.42,0,0,0,924.33,545Z"/><path class="cls-2" d="M1008.38,526.53v8a24.53,24.53,0,0,1,12.3-3.2h1.39v13.69h-1.39a12.16,12.16,0,0,0-12.3,12.22v23.94H994.69V526.53Z"/><path class="cls-2" d="M1054.38,576.46h2.05v13.61h-2.05a25.86,25.86,0,0,1-25.91-25.91v-6.89a26,26,0,0,1,51.91,0v8.94h-38A12.38,12.38,0,0,0,1054.38,576.46Zm.08-31.49a12.32,12.32,0,0,0-11.32,7.54h22.55A12.42,12.42,0,0,0,1054.47,545Z"/><path class="cls-2" d="M1114.74,561.21l20.75-33.54,11.81,7.3-32.55,52.64L1082.18,535l11.81-7.3Z"/><path class="cls-2" d="M1175,576.46h2.05v13.61H1175a25.86,25.86,0,0,1-25.91-25.91v-6.89a26,26,0,0,1,51.91,0v8.94h-38A12.38,12.38,0,0,0,1175,576.46Zm.08-31.49a12.32,12.32,0,0,0-11.32,7.54h22.55A12.42,12.42,0,0,0,1175.09,545Z"/><path class="cls-2" d="M1261.6,526.53V588H1247.9v-8a24.52,24.52,0,0,1-12.3,3.2,26,26,0,0,1,0-51.91,24.53,24.53,0,0,1,12.3,3.2v-8Zm-38.21,30.83a12.26,12.26,0,0,0,24.52,0,12.26,12.26,0,1,0-24.52,0Z"/><path class="cls-2" d="M1287.1,567.53h17.06v13.69H1273.4V516.28h13.69Z"/><path class="cls-2" d="M1347.2,528.58c-7,0-12.3,5.08-12.3,11.64v31.49c0,14.35-12.05,25.26-26,25.26h-2V583.35h2c7,0,12.3-5.08,12.3-11.64V540.22c0-14.35,12.05-25.26,26-25.26h2v13.61Z"/><path class="cls-2" d="M1439,526.53V588h-13.69v-8a24.52,24.52,0,0,1-12.3,3.2,26,26,0,0,1,0-51.91,24.53,24.53,0,0,1,12.3,3.2v-8Zm-38.21,30.83a12.26,12.26,0,0,0,24.52,0,12.26,12.26,0,1,0-24.52,0Z"/><path class="cls-2" d="M1498.74,596.72l-34.19-41.25v25.75h-13.69v-63.3L1485,559.16V533.41h13.69Z"/><path class="cls-2" d="M1560.89,516.28V588H1547.2v-8a24.52,24.52,0,0,1-12.3,3.2,26,26,0,0,1,0-51.91,24.53,24.53,0,0,1,12.3,3.2V516.28Zm-38.21,41.08a12.26,12.26,0,0,0,24.52,0,12.26,12.26,0,1,0-24.52,0Z"/><path class="cls-2" d="M1641.09,547V533.41h13.69v47.81h-13.69v-20.5h-20.5v20.5h-13.69V516.28h13.69V547Z"/><path class="cls-2" d="M1673.48,529.31a8.2,8.2,0,1,1,8.2-8.2A8.17,8.17,0,0,1,1673.48,529.31Zm6.81,51.91h-13.69V533.41h13.69Z"/><path class="cls-2" d="M1742.44,516.28V588h-13.69v-8a24.52,24.52,0,0,1-12.3,3.2,26,26,0,0,1,0-51.91,24.53,24.53,0,0,1,12.3,3.2V516.28Zm-38.21,41.08a12.26,12.26,0,0,0,24.52,0,12.26,12.26,0,1,0-24.52,0Z"/><path class="cls-2" d="M1778.6,576.46h2.05v13.61h-2.05a25.86,25.86,0,0,1-25.91-25.91v-6.89a26,26,0,0,1,51.91,0v8.94h-38A12.38,12.38,0,0,0,1778.6,576.46Zm.08-31.49a12.32,12.32,0,0,0-11.32,7.54h22.55A12.42,12.42,0,0,0,1778.68,545Z"/><path class="cls-2" d="M1842.81,528.58c-7,0-12.3,5.08-12.3,11.64v31.49c0,14.35-12.05,25.26-26,25.26h-2.05V583.35h2.05c7,0,12.3-5.08,12.3-11.64V540.22c0-14.35,12.05-25.26,26-25.26h2v13.61Z"/><path class="cls-2" d="M1898,526.53v8a24.53,24.53,0,0,1,12.3-3.2,26,26,0,1,1,0,51.91,24.52,24.52,0,0,1-12.3-3.2v14.84H1884.3V526.53Zm0,30.83a12.3,12.3,0,1,0,12.3-12.3A12.21,12.21,0,0,0,1898,557.36Z"/><path class="cls-2" d="M1960.15,567.53h17.06v13.69h-30.75V516.28h13.69Z"/><path class="cls-2" d="M2036.9,526.53V588h-13.69v-8a24.52,24.52,0,0,1-12.3,3.2,26,26,0,0,1,0-51.91,24.53,24.53,0,0,1,12.3,3.2v-8Zm-38.21,30.83a12.26,12.26,0,0,0,24.52,0,12.26,12.26,0,1,0-24.52,0Z"/><path class="cls-2" d="M2051.41,516.28h13.69v17.14h14.35V547h-14.35v11c0,6.56,5.33,11.64,12.3,11.64h2v13.61h-2c-13.94,0-26-10.91-26-25.26V547h-6.81V533.41h6.81Z"/><path class="cls-2" d="M2095.69,540.22c0-14.35,12.05-25.26,26-25.26h2v13.61h-2c-7,0-12.3,5.08-12.3,11.64V547h14.35v13.69h-14.35v11c0,14.35-12.05,25.26-26,25.26h-2V583.35h2c7,0,12.3-5.08,12.3-11.64v-11h-6.81V547h6.81Z"/><path class="cls-2" d="M2182.69,557.36a26,26,0,1,1-26-26A25.93,25.93,0,0,1,2182.69,557.36Zm-38.21,0a12.26,12.26,0,0,0,24.52,0,12.26,12.26,0,1,0-24.52,0Z"/><path class="cls-2" d="M2206.64,526.53v8a24.53,24.53,0,0,1,12.3-3.2h1.39v13.69h-1.39a12.16,12.16,0,0,0-12.3,12.22v23.94h-13.69V526.53Z"/><path class="cls-2" d="M2243,525.38l17.06,39,17.06-39,23.29,53.14-12.3,5.41-11-25-17.06,39-17.06-39-11,25-12.3-5.41Z"/><path class="cls-2" d="M2340.71,528.58c-7,0-12.3,5.08-12.3,11.64v31.49c0,14.35-12.05,25.26-26,25.26h-2.05V583.35h2.05c7,0,12.3-5.08,12.3-11.64V540.22c0-14.35,12.05-25.26,26-25.26h2v13.61Z"/><path class="cls-2" d="M2350,584.66a8.2,8.2,0,1,1,0-16.4,8.2,8.2,0,0,1,0,16.4Z"/><path class="cls-2" d="M2408.27,516.28H2422v17.14h14.35V547H2422v11c0,6.56,5.33,11.64,12.3,11.64h2v13.61h-2c-13.94,0-26-10.91-26-25.26V547h-6.81V533.41h6.81Z"/><path class="cls-2" d="M2483.06,547V533.41h13.69v47.81h-13.69v-20.5h-20.5v20.5h-13.69V516.28h13.69V547Z"/><path class="cls-2" d="M2532.91,576.46H2535v13.61h-2.05A25.86,25.86,0,0,1,2507,564.16v-6.89a26,26,0,0,1,51.91,0v8.94h-38A12.38,12.38,0,0,0,2532.91,576.46ZM2533,545a12.32,12.32,0,0,0-11.32,7.54h22.55A12.42,12.42,0,0,0,2533,545Z"/><path class="cls-2" d="M2621.39,525.38l17.06,39,17.06-39,23.29,53.14-12.3,5.41-11-25-17.06,39-17.06-39-11,25-12.3-5.41Z"/><path class="cls-2" d="M2733.24,557.36a26,26,0,1,1-26-26A25.93,25.93,0,0,1,2733.24,557.36Zm-38.21,0a12.26,12.26,0,0,0,24.52,0,12.26,12.26,0,1,0-24.52,0Z"/><path class="cls-2" d="M2793.84,516.28V588h-13.69v-8a24.52,24.52,0,0,1-12.3,3.2,26,26,0,0,1,0-51.91,24.53,24.53,0,0,1,12.3,3.2V516.28Zm-38.21,41.08a12.26,12.26,0,0,0,24.52,0,12.26,12.26,0,1,0-24.52,0Z"/><path class="cls-2" d="M2830,576.46H2832v13.61H2830a25.86,25.86,0,0,1-25.91-25.91v-6.89a26,26,0,0,1,51.91,0v8.94h-38A12.38,12.38,0,0,0,2830,576.46Zm.08-31.49a12.32,12.32,0,0,0-11.32,7.54h22.55A12.42,12.42,0,0,0,2830.08,545Z"/><path class="cls-2" d="M2894.2,528.58c-7,0-12.3,5.08-12.3,11.64v31.49c0,14.35-12.05,25.26-26,25.26h-2V583.35h2c7,0,12.3-5.08,12.3-11.64V540.22c0-14.35,12.05-25.26,26-25.26h2v13.61Z"/><path class="cls-2" d="M175.27,643.46a12.26,12.26,0,0,0,0,24.52,12.48,12.48,0,0,0,8.86-3.69l9.43,9.92a26.32,26.32,0,0,1-18.29,7.46,26,26,0,0,1,0-51.91c7.13,0,13,2.62,18.29,7.46l-9.43,9.92A12.63,12.63,0,0,0,175.27,643.46Z"/><path class="cls-2" d="M252,624.93v61.5H238.33v-8a24.52,24.52,0,0,1-12.3,3.2,26,26,0,0,1,0-51.91,24.53,24.53,0,0,1,12.3,3.2v-8Zm-38.21,30.83a12.26,12.26,0,0,0,24.52,0,12.26,12.26,0,1,0-24.52,0Z"/><path class="cls-2" d="M311.72,695.12l-34.19-41.25v25.75H263.83v-63.3L298,657.56V631.81h13.69Z"/><path class="cls-2" d="M383.71,629.76a26,26,0,1,1,0,51.91,24.52,24.52,0,0,1-12.3-3.2v8H357.72V614.68h13.69V633A24.53,24.53,0,0,1,383.71,629.76Zm-12.3,26a12.3,12.3,0,1,0,12.3-12.3A12.21,12.21,0,0,0,371.41,655.76Z"/><path class="cls-2" d="M444.23,674.86h2.05v13.61h-2.05a25.86,25.86,0,0,1-25.91-25.91v-6.89a26,26,0,0,1,51.91,0v8.94h-38A12.38,12.38,0,0,0,444.23,674.86Zm.08-31.49A12.32,12.32,0,0,0,433,650.92h22.55A12.42,12.42,0,0,0,444.31,643.38Z"/><path class="cls-2" d="M517.37,614.68h13.69v17.14h14.35v13.61H531.06v11c0,6.56,5.33,11.64,12.3,11.64h2v13.61h-2c-13.94,0-26-10.91-26-25.26v-11h-6.81V631.81h6.81Z"/><path class="cls-2" d="M606,655.76a26,26,0,1,1-26-26A25.93,25.93,0,0,1,606,655.76Zm-38.21,0a12.26,12.26,0,0,0,24.52,0,12.26,12.26,0,1,0-24.52,0Z"/><path class="cls-2" d="M614.7,655.68a25.86,25.86,0,0,1,25.91-25.91,24.53,24.53,0,0,1,12.3,3.2v-8h13.69v44.44a26,26,0,0,1-26,26h-2V681.42C627,681.42,614.7,670,614.7,655.68Zm38.21,0a12.3,12.3,0,1,0-12.3,12.3A12.55,12.55,0,0,0,652.92,655.68Z"/><path class="cls-2" d="M676.86,655.68a25.86,25.86,0,0,1,25.91-25.91,24.53,24.53,0,0,1,12.3,3.2v-8h13.69v44.44a26,26,0,0,1-26,26h-2V681.42C689.16,681.42,676.86,670,676.86,655.68Zm38.21,0a12.3,12.3,0,1,0-12.3,12.3A12.55,12.55,0,0,0,715.07,655.68Z"/><path class="cls-2" d="M754.27,665.93h17.06v13.69H740.57V614.68h13.69Z"/><path class="cls-2" d="M805,674.86h2.05v13.61H805a25.86,25.86,0,0,1-25.91-25.91v-6.89a26,26,0,0,1,51.91,0v8.94H793A12.38,12.38,0,0,0,805,674.86Zm.08-31.49a12.32,12.32,0,0,0-11.32,7.54h22.55A12.42,12.42,0,0,0,805.11,643.38Z"/><path class="cls-2" d="M891.62,614.68v71.75H877.92v-8a24.52,24.52,0,0,1-12.3,3.2,26,26,0,0,1,0-51.91,24.53,24.53,0,0,1,12.3,3.2V614.68ZM853.4,655.76a12.26,12.26,0,0,0,24.52,0,12.26,12.26,0,1,0-24.52,0Z"/><path class="cls-2" d="M963.61,629.76a26,26,0,1,1,0,51.91,24.52,24.52,0,0,1-12.3-3.2v8H937.62V614.68h13.69V633A24.53,24.53,0,0,1,963.61,629.76Zm-12.3,26a12.3,12.3,0,1,0,12.3-12.3A12.21,12.21,0,0,0,951.31,655.76Z"/><path class="cls-2" d="M1037.49,627l9.59,9.59-21.89,21.89v34.85h-13.61V658.46l-21.89-21.89,9.59-9.59,19.11,19.19Z"/><path class="cls-2" d="M1111.46,643.46a12.26,12.26,0,0,0,0,24.52,12.48,12.48,0,0,0,8.86-3.69l9.43,9.92a26.32,26.32,0,0,1-18.29,7.46,26,26,0,0,1,0-51.91c7.13,0,13,2.62,18.29,7.46l-9.43,9.92A12.63,12.63,0,0,0,1111.46,643.46Z"/><path class="cls-2" d="M1151.55,665.93h17.06v13.69h-30.75V614.68h13.69Z"/><path class="cls-2" d="M1184.84,627.71a8.2,8.2,0,1,1,8.2-8.2A8.17,8.17,0,0,1,1184.84,627.71Zm6.81,51.91H1178V631.81h13.69Z"/><path class="cls-2" d="M1227.81,643.46a12.26,12.26,0,0,0,0,24.52,12.48,12.48,0,0,0,8.86-3.69l9.43,9.92a26.32,26.32,0,0,1-18.29,7.46,26,26,0,0,1,0-51.91c7.13,0,13,2.62,18.29,7.46l-9.43,9.92A12.63,12.63,0,0,0,1227.81,643.46Z"/><path class="cls-2" d="M1254.21,695.77v-81.1h13.69v41.9L1290,628.86l10.5,8.61-11.81,15,16.56,20.75-10.41,8.69L1280,663.47Z"/><path class="cls-2" d="M1318.25,627.71a8.2,8.2,0,1,1,8.2-8.2A8.17,8.17,0,0,1,1318.25,627.71Zm6.81,51.91h-13.69V631.81h13.69Z"/><path class="cls-2" d="M1384.76,695.12l-34.19-41.25v25.75h-13.69v-63.3l34.19,41.25V631.81h13.69Z"/><path class="cls-2" d="M1395,655.68a25.86,25.86,0,0,1,25.91-25.91,24.53,24.53,0,0,1,12.3,3.2v-8h13.69v44.44a26,26,0,0,1-26,26h-2V681.42C1407.31,681.42,1395,670,1395,655.68Zm38.21,0a12.3,12.3,0,1,0-12.3,12.3A12.55,12.55,0,0,0,1433.22,655.68Z"/><path class="cls-2" d="M1495.62,614.68h13.69v17.14h14.35v13.61h-14.35v11c0,6.56,5.33,11.64,12.3,11.64h2v13.61h-2c-13.94,0-26-10.91-26-25.26v-11h-6.81V631.81h6.81Z"/><path class="cls-2" d="M1570.4,645.43V631.81h13.69v47.81H1570.4v-20.5h-20.5v20.5h-13.69V614.68h13.69v30.75Z"/><path class="cls-2" d="M1620.26,674.86h2.05v13.61h-2.05a25.86,25.86,0,0,1-25.91-25.91v-6.89a26,26,0,0,1,51.91,0v8.94h-38A12.38,12.38,0,0,0,1620.26,674.86Zm.08-31.49a12.32,12.32,0,0,0-11.32,7.54h22.55A12.42,12.42,0,0,0,1620.34,643.38Z"/><path class="cls-2" d="M1704.39,624.93v8a24.53,24.53,0,0,1,12.3-3.2h1.39v13.69h-1.39a12.16,12.16,0,0,0-12.3,12.22v23.94h-13.69V624.93Z"/><path class="cls-2" d="M1732.92,627.71a8.2,8.2,0,1,1,8.2-8.2A8.17,8.17,0,0,1,1732.92,627.71Zm6.81,51.91H1726V631.81h13.69Z"/><path class="cls-2" d="M1750,655.68a25.86,25.86,0,0,1,25.91-25.91,24.53,24.53,0,0,1,12.3,3.2v-8h13.69v44.44a26,26,0,0,1-26,26h-2V681.42C1762.28,681.42,1750,670,1750,655.68Zm38.21,0a12.3,12.3,0,1,0-12.3,12.3A12.55,12.55,0,0,0,1788.19,655.68Z"/><path class="cls-2" d="M1847.89,645.43V631.81h13.69v47.81h-13.69v-20.5h-20.5v20.5h-13.69V614.68h13.69v30.75Z"/><path class="cls-2" d="M1876.09,614.68h13.69v17.14h14.35v13.61h-14.35v11c0,6.56,5.33,11.64,12.3,11.64h2v13.61h-2c-13.94,0-26-10.91-26-25.26v-11h-6.81V631.81h6.81Z"/><path class="cls-2" d="M1966.62,623.78l17.06,39,17.06-39L2024,676.91l-12.3,5.41-11-25-17.06,39-17.06-39-11,25-12.3-5.41Z"/><path class="cls-2" d="M2078.47,655.76a26,26,0,1,1-26-26A25.93,25.93,0,0,1,2078.47,655.76Zm-38.21,0a12.26,12.26,0,0,0,24.52,0,12.26,12.26,0,1,0-24.52,0Z"/><path class="cls-2" d="M2101.26,655.68a12.3,12.3,0,0,0,24.6,0V631.81h13.69v23.86a26,26,0,1,1-52,0V631.81h13.69Z"/><path class="cls-2" d="M2179.82,627c-7,0-12.3,5.08-12.3,11.64v31.49c0,14.35-12.05,25.26-26,25.26h-2V681.75h2c7,0,12.3-5.08,12.3-11.64V638.62c0-14.35,12.05-25.26,26-25.26h2V627Z"/><path class="cls-2" d="M2205.73,674.86h2.05v13.61h-2.05a25.86,25.86,0,0,1-25.91-25.91v-6.89a26,26,0,0,1,51.91,0v8.94h-38A12.38,12.38,0,0,0,2205.73,674.86Zm.08-31.49a12.32,12.32,0,0,0-11.32,7.54H2217A12.42,12.42,0,0,0,2205.82,643.38Z"/><path class="cls-2" d="M2302.17,629.76a26,26,0,1,1,0,51.91,24.52,24.52,0,0,1-12.3-3.2v8h-13.69V614.68h13.69V633A24.53,24.53,0,0,1,2302.17,629.76Zm-12.3,26a12.3,12.3,0,1,0,12.3-12.3A12.21,12.21,0,0,0,2289.87,655.76Z"/><path class="cls-2" d="M2350.87,655.68a12.3,12.3,0,0,0,24.6,0V631.81h13.69v23.86a26,26,0,1,1-52,0V631.81h13.69Z"/><path class="cls-2" d="M2402.53,614.68h13.69v17.14h14.35v13.61h-14.35v11c0,6.56,5.33,11.64,12.3,11.64h2v13.61h-2c-13.94,0-26-10.91-26-25.26v-11h-6.81V631.81h6.81Z"/><path class="cls-2" d="M2443.53,614.68h13.69v17.14h14.35v13.61h-14.35v11c0,6.56,5.33,11.64,12.3,11.64h2v13.61h-2c-13.94,0-26-10.91-26-25.26v-11h-6.81V631.81h6.81Z"/><path class="cls-2" d="M2532.17,655.76a26,26,0,1,1-26-26A25.93,25.93,0,0,1,2532.17,655.76Zm-38.21,0a12.26,12.26,0,0,0,24.52,0,12.26,12.26,0,1,0-24.52,0Z"/><path class="cls-2" d="M2590.31,695.12l-34.19-41.25v25.75h-13.69v-63.3l34.19,41.25V631.81h13.69Z"/><path class="cls-2" d="M2611.47,683.06a8.2,8.2,0,0,1,0-16.4,8.2,8.2,0,1,1,0,16.4Z"/><path class="cls-2" d="M784.06,996.37a26,26,0,0,1-26,26h-2v-13.61h2a12.2,12.2,0,0,0,12.3-12.38V958.81h13.69Zm-6.89-41.66a8.2,8.2,0,1,1,0-16.4,8.2,8.2,0,0,1,0,16.4Z"/><path class="cls-2" d="M808.41,982.68a12.3,12.3,0,0,0,24.6,0V958.81H846.7v23.86a26,26,0,0,1-52,0V958.81h13.69Z"/><path class="cls-2" d="M875.4,950.78l17.06,39,17.06-39,23.29,53.14-12.3,5.41-11-25-17.06,39-17.06-39-11,25-12.3-5.41Z"/><path class="cls-2" d="M953.06,951.93v8a24.53,24.53,0,0,1,12.3-3.2,26,26,0,1,1,0,51.91,24.52,24.52,0,0,1-12.3-3.2v14.84H939.36V951.93Zm0,30.83a12.3,12.3,0,1,0,12.3-12.3A12.21,12.21,0,0,0,953.06,982.76Z"/><path class="cls-2" d="M780,1160.78l17.06,39,17.06-39,23.29,53.14-12.3,5.41-11-25-17.06,39-17.06-39-11,25-12.3-5.41Z"/><path class="cls-2" d="M891.81,1192.76a26,26,0,1,1-26-26A25.93,25.93,0,0,1,891.81,1192.76Zm-38.21,0a12.26,12.26,0,0,0,24.52,0,12.26,12.26,0,1,0-24.52,0Z"/><path class="cls-2" d="M926.16,1196.61l20.75-33.54,11.81,7.3L926.16,1223l-32.55-52.64,11.81-7.3Z"/><path class="cls-2" d="M986.43,1211.86h2.05v13.61h-2.05a25.86,25.86,0,0,1-25.91-25.91v-6.89a26,26,0,0,1,51.91,0v8.94h-38A12.38,12.38,0,0,0,986.43,1211.86Zm.08-31.49a12.32,12.32,0,0,0-11.32,7.54h22.55A12.42,12.42,0,0,0,986.51,1180.38Z"/><path class="cls-2" d="M1070.56,1202.93h17.06v13.69h-30.75v-64.94h13.69Z"/><path class="cls-2" d="M1121.32,1211.86h2.05v13.61h-2.05a25.86,25.86,0,0,1-25.91-25.91v-6.89a26,26,0,0,1,51.91,0v8.94h-38A12.38,12.38,0,0,0,1121.32,1211.86Zm.08-31.49a12.32,12.32,0,0,0-11.32,7.54h22.55A12.42,12.42,0,0,0,1121.4,1180.38Z"/><path class="cls-2" d="M1161.91,1175.62c0-14.35,12.05-25.26,26-25.26h2V1164h-2c-7,0-12.3,5.08-12.3,11.64v6.81H1190v13.69H1175.6v11c0,14.35-12.05,25.26-26,25.26h-2v-13.61h2c7,0,12.3-5.08,12.3-11.64v-11h-6.81v-13.69h6.81Z"/><path class="cls-2" d="M1202.91,1151.68h13.69v17.14H1231v13.61H1216.6v11c0,6.56,5.33,11.64,12.3,11.64h2v13.61h-2c-13.94,0-26-10.91-26-25.26v-11h-6.81v-13.61h6.81Z"/><path class="cls-2" d="M1243.5,1224.82l-9.59-9.59,58.79-58.71,9.59,9.51Z"/><path class="cls-2" d="M1319.84,1161.93v8a24.53,24.53,0,0,1,12.3-3.2h1.39v13.69h-1.39a12.16,12.16,0,0,0-12.3,12.22v23.94h-13.69v-54.69Z"/><path class="cls-2" d="M1348.38,1164.71a8.2,8.2,0,1,1,8.2-8.2A8.17,8.17,0,0,1,1348.38,1164.71Zm6.81,51.91h-13.69v-47.81h13.69Z"/><path class="cls-2" d="M1365.43,1192.68a25.86,25.86,0,0,1,25.91-25.91,24.53,24.53,0,0,1,12.3,3.2v-8h13.69v44.44a26,26,0,0,1-26,26h-2v-13.94C1377.73,1218.42,1365.43,1207,1365.43,1192.68Zm38.21,0a12.3,12.3,0,1,0-12.3,12.3A12.55,12.55,0,0,0,1403.64,1192.68Z"/><path class="cls-2" d="M1463.34,1182.43v-13.61H1477v47.81h-13.69v-20.5h-20.5v20.5h-13.69v-64.94h13.69v30.75Z"/><path class="cls-2" d="M1491.55,1151.68h13.69v17.14h14.35v13.61h-14.35v11c0,6.56,5.33,11.64,12.3,11.64h2v13.61h-2c-13.94,0-26-10.91-26-25.26v-11h-6.81v-13.61h6.81Z"/><path class="cls-2" d="M2019.62,1053.68h13.69v17.14h14.35v13.61h-14.35v11c0,6.56,5.33,11.64,12.3,11.64h2v13.61h-2c-13.94,0-26-10.91-26-25.26v-11h-6.81v-13.61h6.81Z"/><path class="cls-2" d="M2108.27,1094.76a26,26,0,1,1-26-26A25.93,25.93,0,0,1,2108.27,1094.76Zm-38.21,0a12.26,12.26,0,0,0,24.52,0,12.26,12.26,0,1,0-24.52,0Z"/><path class="cls-2" d="M2117,1094.68a25.86,25.86,0,0,1,25.91-25.91,24.53,24.53,0,0,1,12.3,3.2v-8h13.69v44.44a26,26,0,0,1-26,26h-2v-13.94C2129.26,1120.42,2117,1109,2117,1094.68Zm38.21,0a12.3,12.3,0,1,0-12.3,12.3A12.55,12.55,0,0,0,2155.17,1094.68Z"/><path class="cls-2" d="M2179.11,1094.68a25.86,25.86,0,0,1,25.91-25.91,24.53,24.53,0,0,1,12.3,3.2v-8H2231v44.44a26,26,0,0,1-26,26h-2v-13.94C2191.41,1120.42,2179.11,1109,2179.11,1094.68Zm38.21,0A12.3,12.3,0,1,0,2205,1107,12.55,12.55,0,0,0,2217.32,1094.68Z"/><path class="cls-2" d="M2256.52,1104.93h17.06v13.69h-30.75v-64.94h13.69Z"/><path class="cls-2" d="M2307.28,1113.86h2.05v13.61h-2.05a25.86,25.86,0,0,1-25.91-25.91v-6.89a26,26,0,0,1,51.91,0v8.94h-38A12.38,12.38,0,0,0,2307.28,1113.86Zm.08-31.49a12.32,12.32,0,0,0-11.32,7.54h22.55A12.42,12.42,0,0,0,2307.36,1082.38Z"/><path class="cls-2" d="M2402.07,1082.46a12.26,12.26,0,0,0,0,24.52,12.48,12.48,0,0,0,8.86-3.69l9.43,9.92a26.32,26.32,0,0,1-18.29,7.46,26,26,0,0,1,0-51.91c7.13,0,13,2.62,18.29,7.46l-9.43,9.92A12.63,12.63,0,0,0,2402.07,1082.46Z"/><path class="cls-2" d="M2478.82,1094.76a26,26,0,1,1-26-26A25.93,25.93,0,0,1,2478.82,1094.76Zm-38.21,0a12.26,12.26,0,0,0,24.52,0,12.26,12.26,0,1,0-24.52,0Z"/><path class="cls-2" d="M2502.76,1104.93h17.06v13.69h-30.75v-64.94h13.69Z"/><path class="cls-2" d="M2577.22,1094.76a26,26,0,1,1-26-26A25.93,25.93,0,0,1,2577.22,1094.76Zm-38.21,0a12.26,12.26,0,0,0,24.52,0,12.26,12.26,0,1,0-24.52,0Z"/><path class="cls-2" d="M2601.16,1063.93v8a24.53,24.53,0,0,1,12.3-3.2h1.39v13.69h-1.39a12.16,12.16,0,0,0-12.3,12.22v23.94h-13.69v-54.69Z"/><path class="cls-2" d="M2675,1062.78l17.06,39,17.06-39,23.29,53.14-12.3,5.41-11-25-17.06,39-17.06-39-11,25-12.3-5.41Z"/><path class="cls-2" d="M2786.89,1094.76a26,26,0,1,1-26-26A25.93,25.93,0,0,1,2786.89,1094.76Zm-38.21,0a12.26,12.26,0,0,0,24.52,0,12.26,12.26,0,1,0-24.52,0Z"/><path class="cls-2" d="M2847.49,1053.68v71.75h-13.69v-8a24.52,24.52,0,0,1-12.3,3.2,26,26,0,0,1,0-51.91,24.53,24.53,0,0,1,12.3,3.2v-18.29Zm-38.21,41.08a12.26,12.26,0,0,0,24.52,0,12.26,12.26,0,1,0-24.52,0Z"/><path class="cls-2" d="M2883.65,1113.86h2.05v13.61h-2.05a25.86,25.86,0,0,1-25.91-25.91v-6.89a26,26,0,0,1,51.91,0v8.94h-38A12.38,12.38,0,0,0,2883.65,1113.86Zm.08-31.49a12.32,12.32,0,0,0-11.32,7.54H2895A12.42,12.42,0,0,0,2883.73,1082.38Z"/></g></g></svg>