<svg xmlns="http://www.w3.org/2000/svg" viewBox="0 0 310 111"><defs><style>.cls-1{fill:#fff;stroke:#000;stroke-miterlimit:10;stroke-width:7px;}</style></defs><title>Element 8</title><g id="Ebene_2" data-name="Ebene 2"><g id="Ebene_1-2" data-name="Ebene 1"><rect class="cls-1" x="3.5" y="3.5" width="303" height="104" rx="12" ry="12"/><path d="M106.14,53.88a4.64,4.64,0,0,0,0,9.27,4.72,4.72,0,0,0,3.35-1.39l3.57,3.75a10,10,0,0,1-6.91,2.82,9.81,9.81,0,1,1,6.91-16.81l-3.57,3.75A4.78,4.78,0,0,0,106.14,53.88Z"/><path d="M121.3,46.87v3A9.28,9.28,0,0,1,126,48.7h.53v5.18H126a4.6,4.6,0,0,0-4.65,4.62v9.05h-5.18V46.87Z"/><path d="M138.69,65.75h.77V70.9h-.77a9.78,9.78,0,0,1-9.8-9.8V58.5a9.81,9.81,0,0,1,19.63,0v3.38H134.13A4.68,4.68,0,0,0,138.69,65.75Zm0-11.91a4.66,4.66,0,0,0-4.28,2.85H143A4.7,4.7,0,0,0,138.72,53.85Z"/><path d="M171.43,43V70.13h-5.18v-3a9.27,9.27,0,0,1-4.65,1.21,9.81,9.81,0,0,1,0-19.63,9.28,9.28,0,0,1,4.65,1.21V43ZM157,58.53a4.64,4.64,0,0,0,9.27,0,4.64,4.64,0,1,0-9.27,0Z"/><path d="M178.5,47.92a3.1,3.1,0,1,1,3.1-3.1A3.09,3.09,0,0,1,178.5,47.92Zm2.57,19.63h-5.18V49.48h5.18Z"/><path d="M186.55,43h5.18v6.48h5.43v5.15h-5.43v4.16a4.46,4.46,0,0,0,4.65,4.4h.78v5.15h-.78a9.69,9.69,0,0,1-9.83-9.55V54.62H184V49.48h2.57Z"/><path d="M213.77,47.65a4.46,4.46,0,0,0-4.65,4.4V64a9.69,9.69,0,0,1-9.83,9.55h-.78V68.36h.78a4.46,4.46,0,0,0,4.65-4.4V52a9.69,9.69,0,0,1,9.83-9.55h.78v5.15Z"/></g></g></svg>