<svg xmlns="http://www.w3.org/2000/svg" viewBox="0 0 407.44 144.45"><defs><style>.cls-1{fill:#fff;stroke:#000;stroke-miterlimit:10;stroke-width:7px;}</style></defs><title>Element 7</title><g id="Ebene_2" data-name="Ebene 2"><g id="Ebene_1-2" data-name="Ebene 1"><rect class="cls-1" x="3.5" y="3.5" width="400.44" height="137.45" rx="12" ry="12"/><path d="M37.1,81.7h14v8h-22v-38h8Z"/><path d="M70.8,86.94H72v8H70.8A15.14,15.14,0,0,1,55.63,79.73v-4A15.19,15.19,0,0,1,86,75.7v5.23H63.74A7.25,7.25,0,0,0,70.8,86.94Zm0-18.43a7.21,7.21,0,0,0-6.62,4.42h13.2A7.27,7.27,0,0,0,70.85,68.5Z"/><path d="M106.13,78l12.15-19.63,6.91,4.27L106.13,93.46,87.07,62.65,94,58.37Z"/><path d="M141.41,86.94h1.2v8h-1.2a15.14,15.14,0,0,1-15.17-15.17v-4a15.19,15.19,0,0,1,30.39,0v5.23H134.35A7.25,7.25,0,0,0,141.41,86.94Zm0-18.43a7.21,7.21,0,0,0-6.62,4.42H148A7.27,7.27,0,0,0,141.46,68.5Z"/><path d="M170.64,81.7h14v8h-22v-38h8Z"/><path d="M229.82,64.47a6.9,6.9,0,0,0-7.2,6.82v8.83A15,15,0,0,1,207.4,94.9h-1.2v-8h1.2a6.9,6.9,0,0,0,7.2-6.82V71.29A15,15,0,0,1,229.82,56.5H231v8Z"/><path d="M247.39,86.94h1.2v8h-1.2a15.14,15.14,0,0,1-15.17-15.17v-4a15.19,15.19,0,0,1,30.39,0v5.23H240.33A7.25,7.25,0,0,0,247.39,86.94Zm0-18.43a7.21,7.21,0,0,0-6.62,4.42H254A7.27,7.27,0,0,0,247.44,68.5Z"/><path d="M276.62,81.7h14v8h-22v-38h8Z"/><path d="M310.32,86.94h1.2v8h-1.2a15.14,15.14,0,0,1-15.17-15.17v-4a15.19,15.19,0,0,1,30.39,0v5.23H303.26A7.25,7.25,0,0,0,310.32,86.94Zm0-18.43a7.21,7.21,0,0,0-6.62,4.42h13.2A7.27,7.27,0,0,0,310.37,68.5Z"/><path d="M345.79,68.55a7.18,7.18,0,0,0,0,14.35A7.31,7.31,0,0,0,351,80.74l5.52,5.81a15.41,15.41,0,0,1-10.7,4.37,15.19,15.19,0,1,1,10.7-26L351,70.71A7.39,7.39,0,0,0,345.79,68.55Z"/><path d="M362.83,51.7h8v10h8.4v8h-8.4v6.43A6.91,6.91,0,0,0,378,83h1.2v8H378a15,15,0,0,1-15.22-14.79V69.7h-4v-8h4Z"/></g></g></svg>