<svg xmlns="http://www.w3.org/2000/svg" viewBox="0 0 2079.44 286.4"><defs><style>.cls-1{fill:#fff;}</style></defs><title>Element 6</title><g id="Ebene_2" data-name="Ebene 2"><g id="Ebene_1-2" data-name="Ebene 1"><ellipse cx="763.89" cy="98.71" rx="72.93" ry="52.03" transform="translate(52.59 394.22) rotate(-29.92)"/><rect x="43.55" y="86.58" width="1019.74" height="175.27"/><path d="M456.36,75.27s-5.8-59.66-33.55-49c0,0,40.39-34.51,44.29,40.12S456.36,75.27,456.36,75.27Z"/><path d="M465.6,71.7s-8.28-66.59,21.83-58.26c0,0-20.68,2.57-15.46,57.47S465.6,71.7,465.6,71.7Z"/><ellipse class="cls-1" cx="573.31" cy="177.77" rx="24.83" ry="26.95" transform="translate(331.15 726.99) rotate(-83.43)"/><ellipse cx="564.52" cy="185.91" rx="9.8" ry="10.64" transform="translate(315.28 725.47) rotate(-83.43)"/><ellipse class="cls-1" cx="776.74" cy="96.82" rx="26.55" ry="24.45" transform="translate(55.25 400.37) rotate(-29.92)"/><ellipse cx="778.93" cy="85.22" rx="10.48" ry="9.65" transform="translate(61.32 399.92) rotate(-29.92)"/><path d="M164,234.22s43,101.28,156.53,3.07Z"/><ellipse class="cls-1" cx="237.67" cy="206.68" rx="39.9" ry="36.75"/><ellipse cx="245.02" cy="203.73" rx="15.75" ry="14.51"/><path d="M394.2,96.11s70.59-67.52,135-6.14S394.2,96.11,394.2,96.11Z"/><ellipse cx="943.59" cy="244.97" rx="49.11" ry="41.43"/><ellipse cx="1041.81" cy="162.1" rx="49.11" ry="59.85"/><ellipse cx="66.58" cy="163.75" rx="66.61" ry="59.73" transform="translate(-10.3 4.57) rotate(-3.65)"/><path d="M894.48,93s0-30.69-15.35-46c0,0,18.42,6.14,24.55,30.69,0,0-15.35-55.25,12.28-76.73,0,0-15.35,36.83,0,73.66,0,0,0-24.55,18.42-33.76,0,0-21.48,30.69-12.28,52.18Z"/><path d="M630.53,93s-46-21.48-43-85.94c0,0-18.42,55.25,21.48,85.94S630.53,93,630.53,93Z"/><path d="M624.39,19.38s-24.55,43-12.28,64.45S633.6,93,633.6,93,606,93,624.39,19.38Z"/><ellipse class="cls-1" cx="945.59" cy="251.34" rx="19.4" ry="17.86" transform="translate(411.62 1071.22) rotate(-71.81)"/><ellipse cx="937.78" cy="252.58" rx="7.66" ry="7.05" transform="translate(405.07 1064.64) rotate(-71.81)"/><ellipse class="cls-1" cx="613.69" cy="149.72" rx="11.41" ry="12.39" transform="translate(-12.72 231.17) rotate(-21.12)"/><ellipse cx="617.05" cy="145.94" rx="4.5" ry="4.89" transform="translate(-11.14 232.13) rotate(-21.12)"/><ellipse class="cls-1" cx="45.69" cy="154.63" rx="19.32" ry="20.98" transform="translate(-25.61 10.01) rotate(-9.78)"/><ellipse cx="43.17" cy="155.65" rx="9.82" ry="10.66" transform="translate(-25.82 9.6) rotate(-9.78)"/><path d="M242.27,86.58s13.81-12,20-39.58c0,0,9.21,27.62-18.42,46S242.27,86.58,242.27,86.58Z"/><path d="M246.88,90s-18.42-33.76-3.07-64.45c0,0-24.55,21.48-6.14,67.52Z"/><ellipse class="cls-1" cx="1024.49" cy="162.42" rx="24.83" ry="26.95" transform="translate(745.99 1161.62) rotate(-83.43)"/><ellipse cx="1015.7" cy="170.56" rx="9.8" ry="10.64" transform="translate(730.12 1160.1) rotate(-83.43)"/><path d="M1816.38,62.09c14.3,24.94-2.34,61.48-37.15,81.6s-74.63,16.22-88.93-8.73,2.34-61.48,37.15-81.6S1802.08,37.14,1816.38,62.09Z"/><rect x="1031.14" y="86.55" width="1020.66" height="175.02"/><path d="M1444.93,74.9s-5.8-59.66-33.55-49c0,0,40.39-34.51,44.29,40.12S1444.93,74.9,1444.93,74.9Z"/><path d="M1454.17,71.33S1445.89,4.74,1476,13.07c0,0-20.68,2.57-15.46,57.47S1454.17,71.33,1454.17,71.33Z"/><path class="cls-1" d="M1536.09,174.66c1.56-13.63,14.71-23.3,29.38-21.59s25.3,14.13,23.75,27.76-14.71,23.3-29.38,21.59S1534.54,188.29,1536.09,174.66Z"/><path d="M1541.53,183.86c.64-5.55,6.09-9.49,12.16-8.8s10.47,5.76,9.83,11.31-6.09,9.49-12.16,8.8S1540.89,189.41,1541.53,183.86Z"/><path class="cls-1" d="M1787.18,83.5c6.67,11.65,1.88,27-10.71,34.27s-28.19,3.74-34.86-7.91-1.88-27,10.71-34.27S1780.51,71.86,1787.18,83.5Z"/><path d="M1783.48,89.47c2.62,4.75.74,11-4.21,14s-11.08,1.52-13.7-3.22-.74-11,4.21-14S1780.86,84.73,1783.48,89.47Z"/><path d="M1152.58,233.85s43,101.28,156.53,3.07Z"/><ellipse class="cls-1" cx="1225.51" cy="206.3" rx="39.61" ry="36.85"/><ellipse cx="1227.35" cy="211.83" rx="15.66" ry="14.74"/><path d="M1382.77,95.74s70.59-67.52,135-6.14S1382.77,95.74,1382.77,95.74Z"/><ellipse cx="1932.97" cy="244.07" rx="48.82" ry="41.45"/><ellipse cx="2030.61" cy="161.17" rx="48.82" ry="59.88"/><path d="M1121.3,158.76c2.09,33-25.86,61.63-62.42,64s-67.91-22.49-70-55.47,25.86-61.63,62.42-64S1119.21,125.77,1121.3,158.76Z"/><path d="M1883.05,92.08s0-30.69-15.35-46c0,0,18.42,6.14,24.55,30.69,0,0-15.35-55.25,12.28-76.73,0,0-15.35,36.83,0,73.66,0,0,0-24.55,18.42-33.76,0,0-21.48,30.69-12.28,52.18Z"/><path d="M1619.1,92.67s-46-21.48-43-85.94c0,0-18.42,55.25,21.48,85.94S1619.1,92.67,1619.1,92.67Z"/><path d="M1613,19s-24.55,43-12.28,64.45,21.48,9.21,21.48,9.21S1594.55,92.67,1613,19Z"/><path class="cls-1" d="M1927.7,270c-9.58-3.09-14.58-13.89-11.16-24.11s14-16,23.54-12.91,14.58,13.89,11.16,24.11S1937.28,273,1927.7,270Z"/><path d="M1927.73,264.94a7,7,0,0,1-4.46-9.19,7.73,7.73,0,0,1,9.41-4.92,7,7,0,0,1,4.46,9.19A7.73,7.73,0,0,1,1927.73,264.94Z"/><path class="cls-1" d="M1596.72,138.83a12.58,12.58,0,0,1,15.67,7.27,11.4,11.4,0,0,1-6.41,15.29,12.58,12.58,0,0,1-15.67-7.27A11.4,11.4,0,0,1,1596.72,138.83Z"/><path d="M1597.72,142.09a4.84,4.84,0,0,1,6,2.79,4.38,4.38,0,0,1-2.47,5.88,4.84,4.84,0,0,1-6-2.79A4.38,4.38,0,0,1,1597.72,142.09Z"/><path class="cls-1" d="M1030.34,132.87c10.5-1.84,20.6,6,22.57,17.6s-5,22.41-15.45,24.24-20.6-6-22.57-17.6S1019.84,134.71,1030.34,132.87Z"/><path d="M1030.19,143.8c5.5-1,10.79,3.15,11.82,9.18s-2.59,11.69-8.09,12.65-10.79-3.15-11.82-9.18S1024.69,144.76,1030.19,143.8Z"/><path d="M1230.84,86.21s13.81-12,20-39.58c0,0,9.21,27.62-18.42,46S1230.84,86.21,1230.84,86.21Z"/><path d="M1235.45,89.6s-18.42-33.76-3.07-64.45c0,0-24.55,21.48-6.14,67.52Z"/><path class="cls-1" d="M1985.63,158.08c1.56-13.63,14.71-23.3,29.38-21.59s25.3,14.13,23.75,27.76-14.71,23.3-29.38,21.59S1984.07,171.71,1985.63,158.08Z"/><path d="M1992.91,169.12c.64-5.55,6.09-9.49,12.16-8.8s10.47,5.76,9.83,11.31-6.09,9.49-12.16,8.8S1992.26,174.67,1992.91,169.12Z"/><path d="M1008.32,154.05s12.07-9,51.15-10.39l1,1.84h0c0-.66-6.14-16-33.76-16S1008.32,154.05,1008.32,154.05Z"/><path d="M1061.72,158s-12.3,8.73-51.38,7.86l-1,0h0s5.73,15.5,33.35,16.23S1061.72,158,1061.72,158Z"/><path d="M1530.09,184.74s24.55-17.9,61.38-10.74l-18.42-32.23L1524,159.68Z"/><path d="M1972.58,157.12s58.32-15.35,79.8,0-30.69-39.9-30.69-39.9l-49.11,15.35Z"/><path d="M1978.2,169.4s36.83,18.42,70.59,12.28L2027.31,194l-46-6.14Z"/></g></g></svg>