<svg xmlns="http://www.w3.org/2000/svg" viewBox="0 0 601.96 241.66"><defs><style>.cls-1{fill:#fff;}.cls-2,.cls-3{fill:none;}.cls-3{stroke:#000;stroke-miterlimit:10;stroke-width:12.07px;}</style></defs><title>Element 5</title><g id="Ebene_2" data-name="Ebene 2"><g id="Ebene_1-2" data-name="Ebene 1"><path class="cls-1" d="M23.69,5.56c-10,0-18.11,7.59-18.11,16.86V218.29c0,9.27,8.15,16.86,18.11,16.86H300.53V5.56Z"/><path d="M577.37,5.56H300.53V235.15H577.37c10,0,18.11-7.59,18.11-16.86V22.41C595.47,13.14,587.32,5.56,577.37,5.56Z"/><path d="M228.41,126.11h-4a53.61,53.61,0,0,0-3.08-7l3-3a9.76,9.76,0,0,0,0-13.76L214,92.11a9.76,9.76,0,0,0-13.76,0l-3.49,3.49a53.58,53.58,0,0,0-6.43-2.55V89.62a9.76,9.76,0,0,0-9.73-9.73H166a9.76,9.76,0,0,0-9.73,9.73v3.71a53.61,53.61,0,0,0-6.17,2.53l-3.76-3.76a9.76,9.76,0,0,0-13.76,0l-10.32,10.32a9.76,9.76,0,0,0,0,13.76l3.49,3.49a53.56,53.56,0,0,0-2.81,6.43h-4.79a9.76,9.76,0,0,0-9.73,9.73v14.6a9.76,9.76,0,0,0,9.73,9.73h4a53.52,53.52,0,0,0,2.81,7.24l-2.68,2.68a9.76,9.76,0,0,0,0,13.76l10.32,10.32a9.76,9.76,0,0,0,13.76,0l2.15-2.15a53.62,53.62,0,0,0,7.78,3.36v4.52a9.76,9.76,0,0,0,9.73,9.73h14.6a9.76,9.76,0,0,0,9.73-9.73v-4.25a53.57,53.57,0,0,0,8.05-3.36l1.87,1.87a9.76,9.76,0,0,0,13.76,0l10.32-10.32a9.76,9.76,0,0,0,0-13.76L222.17,168a53.56,53.56,0,0,0,3.07-7.79h3.17a9.76,9.76,0,0,0,9.73-9.73v-14.6A9.76,9.76,0,0,0,228.41,126.11Z"/><circle class="cls-1" cx="173.26" cy="144.77" r="30.82"/><circle cx="173.26" cy="143.96" r="11.35"/><path d="M138.91,132.36s34.35,11.45,68.7,0-38.17-24.81-38.17-24.81Z"/><path class="cls-1" d="M539.61,210.65a10.6,10.6,0,0,0,9.13-7.79l7.39-.08-.28-24.93c3-3.39,5.33-9.26-.2-18.2L554.44,51.44a8.88,8.88,0,0,0,4.26-8,8.87,8.87,0,0,0-4.43-7.88l-.15-13.25-8.14.09a11.7,11.7,0,0,0-19,.21l-3.85,0,.46,40.93a7.13,7.13,0,0,0-4.28.92c-4.38,2.59-5,9.66-1.37,15.79a16.31,16.31,0,0,0,5.9,6l1.3,116.86,3.78,0C530.58,207.8,534.85,211,539.61,210.65Z"/><ellipse cx="540.21" cy="109.2" rx="4.77" ry="4.39" transform="translate(375.8 635.24) rotate(-84.07)"/><ellipse cx="525.48" cy="73.36" rx="4.33" ry="4.7" transform="translate(35.7 277.38) rotate(-30.56)"/><ellipse cx="545.98" cy="168.54" rx="6.5" ry="7.06" transform="translate(-1.84 6.09) rotate(-0.64)"/><ellipse cx="552.49" cy="43.18" rx="3.16" ry="3.43" transform="matrix(0.3, -0.95, 0.95, 0.3, 344.71, 556.93)"/><ellipse cx="535.16" cy="102.11" rx="2.19" ry="2.02" transform="translate(0.27 205.65) rotate(-21.76)"/><ellipse cx="537.15" cy="202.61" rx="3.71" ry="3.42" transform="translate(-27.79 100.52) rotate(-10.42)"/><ellipse cx="536.6" cy="29.39" rx="4.77" ry="4.39" transform="translate(451.95 560.09) rotate(-84.07)"/><ellipse class="cls-1" cx="541.66" cy="110.74" rx="1.88" ry="1.73" transform="translate(375.58 638.07) rotate(-84.07)"/><ellipse class="cls-1" cx="523.43" cy="73" rx="1.71" ry="1.85" transform="translate(35.6 276.28) rotate(-30.56)"/><ellipse class="cls-1" cx="545.45" cy="167.24" rx="2.57" ry="2.79" transform="translate(-1.83 6.09) rotate(-0.64)"/><ellipse class="cls-1" cx="552.73" cy="44.56" rx="1.25" ry="1.35" transform="matrix(0.3, -0.95, 0.95, 0.3, 343.55, 558.12)"/><ellipse class="cls-1" cx="534.49" cy="101.52" rx="0.87" ry="0.8" transform="translate(0.44 205.36) rotate(-21.76)"/><ellipse class="cls-1" cx="537.34" cy="203.06" rx="1.89" ry="1.74" transform="translate(-27.87 100.56) rotate(-10.42)"/><ellipse class="cls-1" cx="538.06" cy="30.93" rx="1.88" ry="1.73" transform="translate(451.73 562.92) rotate(-84.07)"/><path class="cls-1" d="M554.76,79.5S554.15,73.63,559,73c0,0,2.81,8.12-4.26,7.92S554.76,79.5,554.76,79.5Z"/><path class="cls-1" d="M554.79,82.94s7.58-2.35,10.37,4.14c0,0-6.48,3.33-10.89-2.59S554.79,82.94,554.79,82.94Z"/><path class="cls-1" d="M556.83,168.11s1-8.16,7-9.31c0,0,4.82,7.08-5.93,10.69S556.83,168.11,556.83,168.11Z"/><path class="cls-1" d="M558.91,171.36s3.9.36,3.11,3.92c0,0-3.82.4-3.8-3.08S558.91,171.36,558.91,171.36Z"/><path class="cls-1" d="M555.35,132.55s4.25-9,10.81-4.74c0,0-1,6-6.45,6,0,0,3.77-2.76,9.82,3.69,0,0-5.37,5.49-10.32.11,0,0,3.86,4.85,1.16,7,0,0-7.06.08-6.06-7.54S555.35,132.55,555.35,132.55Z"/><path d="M32.57,52.33H60.8V87.65H90.37v28.05H60.8v22.64c0,13.52,11,24,25.35,24h4.23V190.4H86.14c-28.73,0-53.57-22.48-53.57-52.05V115.71h-14V87.65h14Z"/><path class="cls-1" d="M436.81,83.43a53.47,53.47,0,0,1,35.66,13.69L490.38,79.2,510,98.81l-19.6,19.6v46.64a53.59,53.59,0,0,1-53.57,53.57h-4.22V189.9c-23.83,0-49.18-23.49-49.18-53.06A53.3,53.3,0,0,1,436.81,83.43ZM411.63,137a25.27,25.27,0,0,0,50.53,0,25.27,25.27,0,1,0-50.53,0Z"/><path class="cls-2" d="M279.69,137a25,25,0,0,0,20.83,24.79V112A25.18,25.18,0,0,0,279.69,137Z"/><path class="cls-2" d="M304.87,162.18a25.26,25.26,0,1,0,0-50.53,25.43,25.43,0,0,0-4.35.4v49.74A25.78,25.78,0,0,0,304.87,162.18Z"/><path d="M279.69,137a25.18,25.18,0,0,1,20.83-25V83.62a53.28,53.28,0,0,0-49.05,53.21c0,29.52,25.26,53,49.05,53.06v-28.1A25,25,0,0,1,279.69,137Z"/><path class="cls-1" d="M358.44,79.2,340.52,97.12a53.47,53.47,0,0,0-35.66-13.69c-1.47,0-2.91.07-4.35.19V112a25.23,25.23,0,0,1,29.7,25,25.17,25.17,0,0,1-25.35,25.18,25.78,25.78,0,0,1-4.35-.39v28.1h0v28.73h4.35a53.59,53.59,0,0,0,53.57-53.57V118.41L378,98.81Z"/><rect class="cls-3" x="6.04" y="6.04" width="589.89" height="229.59" rx="12" ry="12"/></g></g></svg>