<svg xmlns="http://www.w3.org/2000/svg" viewBox="0 0 310 111"><defs><style>.cls-1{fill:red;stroke:#000;stroke-miterlimit:10;stroke-width:7px;}.cls-2{fill:#fff;}</style></defs><title>Element 9</title><g id="Ebene_2" data-name="Ebene 2"><g id="Ebene_1-2" data-name="Ebene 1"><rect class="cls-1" x="3.5" y="3.5" width="303" height="104" rx="12" ry="12"/><path class="cls-2" d="M142.69,67.55l-3.6,3.63L135,67.12a9.62,9.62,0,0,1-4.74,1.21,9.81,9.81,0,1,1,9.83-9.83,10.65,10.65,0,0,1-1.37,5.08Zm-17-9a4.64,4.64,0,0,0,9.27,0,4.64,4.64,0,1,0-9.27,0Z"/><path class="cls-2" d="M148.74,58.5a4.65,4.65,0,0,0,9.3,0v-9h5.18v9a9.83,9.83,0,1,1-19.66,0v-9h5.18Z"/><path class="cls-2" d="M172.95,44.82a3.12,3.12,0,1,1-3.1-3.1A3.11,3.11,0,0,1,172.95,44.82Zm-.53,22.73h-5.18V49.48h5.18Z"/><path class="cls-2" d="M177.91,43h5.18v6.48h5.43v5.15h-5.43v4.16a4.46,4.46,0,0,0,4.65,4.4h.78v5.15h-.78a9.69,9.69,0,0,1-9.83-9.55V54.62h-2.57V49.48h2.57Z"/></g></g></svg>