<svg xmlns="http://www.w3.org/2000/svg" viewBox="0 0 929 531.75"><defs><style>.cls-1{stroke:#fff;stroke-miterlimit:10;stroke-width:21px;}.cls-2{fill:#fff;}</style></defs><title>Element 33</title><g id="Ebene_2" data-name="Ebene 2"><g id="Ebene_1-2" data-name="Ebene 1"><rect class="cls-1" x="10.5" y="10.5" width="908" height="510.75" rx="40" ry="40"/><path class="cls-2" d="M219.83,93.56H234v17.77h14.88v14.11H234v11.39c0,6.8,5.53,12.07,12.75,12.07h2.13V163h-2.12c-14.45,0-26.95-11.31-26.95-26.18V125.44h-7.06V111.33h7.06Z"/><path class="cls-2" d="M297.36,125.44V111.33h14.2v49.56h-14.2V139.64H276.1v21.25h-14.2V93.56h14.2v31.88Z"/><path class="cls-2" d="M376,104.19v63.75h-14.2V159.7A25.42,25.42,0,0,1,349,163a26.9,26.9,0,0,1,0-53.81,25.43,25.43,0,0,1,12.75,3.31v-8.33Zm-39.61,32a12.71,12.71,0,0,0,25.42,0,12.71,12.71,0,1,0-25.42,0Z"/><path class="cls-2" d="M437.86,177l-35.45-42.76v26.69h-14.2V95.26L423.67,138V111.33h14.2Z"/><path class="cls-2" d="M450.1,177.63V93.56h14.2V137l22.87-28.73L498,117.19,485.8,132.75,503,154.26l-10.8,9-15.39-19.13Z"/><path class="cls-2" d="M544.28,106.31c-7.23,0-12.75,5.27-12.75,12.07V151c0,14.88-12.5,26.18-26.95,26.18h-2.12V163.1h2.13c7.23,0,12.75-5.27,12.75-12.07V118.38c0-14.88,12.5-26.18,26.95-26.18h2.13v14.11Z"/><path class="cls-2" d="M591.79,118.38c0-14.88,12.5-26.18,26.95-26.18h2.13v14.11h-2.12c-7.23,0-12.75,5.27-12.75,12.07v7.05h14.88v14.2H606V151c0,14.88-12.5,26.18-26.95,26.18h-2.12V163.1H579c7.23,0,12.75-5.27,12.75-12.07V139.64h-7.06v-14.2h7.06Z"/><path class="cls-2" d="M682,136.15A26.9,26.9,0,1,1,655,109.2,26.88,26.88,0,0,1,682,136.15Zm-39.61,0a12.71,12.71,0,0,0,25.42,0,12.71,12.71,0,1,0-25.42,0Z"/><path class="cls-2" d="M706.8,104.19v8.33a25.43,25.43,0,0,1,12.75-3.31H721v14.2h-1.45a12.61,12.61,0,0,0-12.75,12.67v24.82H692.6v-56.7Z"/><path class="cls-2" d="M276.61,206.19v8.33a25.43,25.43,0,0,1,12.75-3.31,26.9,26.9,0,1,1,0,53.81,25.42,25.42,0,0,1-12.75-3.32v15.39h-14.2v-70.9Zm0,32a12.75,12.75,0,1,0,12.75-12.75A12.66,12.66,0,0,0,276.61,238.15Z"/><path class="cls-2" d="M341,248.69h17.68v14.2H326.85V195.56H341Z"/><path class="cls-2" d="M420.61,206.19v63.75h-14.2V261.7A25.42,25.42,0,0,1,393.66,265a26.9,26.9,0,0,1,0-53.81,25.43,25.43,0,0,1,12.75,3.31v-8.33Zm-39.61,32a12.71,12.71,0,0,0,25.42,0,12.71,12.71,0,1,0-25.42,0Z"/><path class="cls-2" d="M476.2,208.31l9.95,9.95L463.44,241v36.13H449.33V241l-22.7-22.7,9.95-9.95,19.81,19.89Z"/><path class="cls-2" d="M499.31,209.08a8.5,8.5,0,1,1,8.5-8.5A8.47,8.47,0,0,1,499.31,209.08Zm7.06,53.81h-14.2V213.33h14.2Z"/><path class="cls-2" d="M568.25,279,532.8,236.19v26.69h-14.2V197.26L554.05,240V213.33h14.2Z"/><path class="cls-2" d="M578.87,238.07a26.81,26.81,0,0,1,26.86-26.86,25.43,25.43,0,0,1,12.75,3.31v-8.33h14.2v46.07a27,27,0,0,1-26.95,26.95h-2.12V264.76C591.62,264.76,578.87,252.94,578.87,238.07Zm39.61,0a12.75,12.75,0,1,0-12.75,12.75A13,13,0,0,0,618.48,238.07Z"/><path class="cls-2" d="M657.92,266.46a8.5,8.5,0,1,1,8.5-8.5A8.47,8.47,0,0,1,657.92,266.46Zm-7.06-70.9H665v49.64H650.87Z"/></g></g></svg>